<svg width="512" height="512" viewBox="0 0 512 512" fill="none" xmlns="http://www.w3.org/2000/svg">
<rect width="512" height="512" rx="256" fill="#967EDF"/>
<g clip-path="url(#clip0_101_36)">
<path d="M150.268 198.564C162.583 198.564 174.897 198.564 187.585 198.564C194.955 216.597 195.991 230.928 195.515 250.53C195.361 259.555 195.207 268.581 195.049 277.88C220.088 277.88 245.128 277.88 270.927 277.88C270.516 281.49 270.106 285.101 269.683 288.82C263.936 288.82 258.189 288.82 252.268 288.82C253.897 293.58 255.53 298.337 257.166 303.094C257.63 304.452 258.094 305.81 258.573 307.21C259.018 308.501 259.463 309.792 259.921 311.123C260.331 312.319 260.742 313.515 261.165 314.747C262.008 317.48 262.008 317.48 263.463 318.906C263.944 317.402 264.425 315.898 264.921 314.349C268.133 304.319 271.35 294.293 274.674 284.307C275.823 280.854 276.966 277.399 278.108 273.943C281.007 265.179 283.912 256.418 286.826 247.661C287.422 245.868 288.018 244.074 288.613 242.28C298.74 211.747 298.74 211.747 300.78 209.504C305.056 209.248 305.056 209.248 309.488 209.504C310.719 210.858 310.719 210.858 311.975 212.239C311.497 219.02 309.4 225.209 307.311 231.555C306.977 232.581 306.644 233.606 306.3 234.663C303.923 241.899 301.337 249.011 298.584 256.085C295.834 263.28 293.353 270.587 290.829 277.88C301.912 277.88 312.995 277.88 324.414 277.88C324.351 269.46 324.272 261.043 324.156 252.623C324.121 249.761 324.095 246.898 324.077 244.036C324.051 239.914 323.993 235.794 323.929 231.673C323.926 229.762 323.926 229.762 323.924 227.813C323.768 220.15 322.923 215.534 318.195 209.504C312.52 205.392 307.403 204.662 300.78 204.034C300.165 201.326 300.165 201.326 299.536 198.564C322.524 198.564 345.511 198.564 369.195 198.564C369.195 199.918 369.195 201.272 369.195 202.667C367.8 203.116 367.8 203.116 366.377 203.575C365.152 204.008 363.927 204.442 362.664 204.889C361.452 205.301 360.24 205.714 358.991 206.139C354.645 208.635 352.433 211.457 350.536 216.342C349.827 221.175 349.869 225.939 349.912 230.826C349.906 232.268 349.899 233.71 349.892 235.196C349.876 239.951 349.897 244.706 349.919 249.461C349.919 252.772 349.917 256.083 349.914 259.393C349.912 266.327 349.928 273.261 349.956 280.195C349.991 289.08 349.988 297.963 349.972 306.848C349.963 313.683 349.973 320.517 349.989 327.352C349.994 330.628 349.995 333.904 349.99 337.18C349.986 341.759 350.007 346.338 350.034 350.917C350.028 352.268 350.023 353.62 350.017 355.012C350.088 362.223 350.523 367.413 354.268 373.607C359.112 377.985 362.965 379.792 369.195 380.444C369.195 382.249 369.195 384.055 369.195 385.914C348.26 385.914 327.325 385.914 305.756 385.914C305.756 384.109 305.756 382.304 305.756 380.444C306.506 380.31 307.257 380.176 308.03 380.038C316.12 378.391 316.12 378.391 321.927 372.239C324.095 367.197 324.743 363.153 324.811 357.595C324.836 356.063 324.86 354.53 324.886 352.951C324.9 351.311 324.915 349.671 324.929 347.982C324.954 346.292 324.978 344.601 325.002 342.86C325.064 338.384 325.116 333.908 325.162 329.432C325.212 324.857 325.275 320.283 325.338 315.709C325.459 306.746 325.558 297.784 325.658 288.82C306.571 289.497 306.571 289.497 287.097 290.188C282.847 301.584 278.848 312.986 275.203 324.632C272.402 333.572 269.435 342.353 266.034 351.043C264.198 355.773 262.581 360.572 260.975 365.402C257.691 365.402 254.408 365.402 251.024 365.402C244.808 349.752 239.05 333.919 233.477 317.981C232.736 315.862 231.993 313.743 231.247 311.626C230.188 308.614 229.137 305.598 228.09 302.581C227.768 301.668 227.445 300.754 227.113 299.813C225.775 295.929 224.902 293.014 224.902 288.82C215.051 288.82 205.199 288.82 195.049 288.82C195.099 299.021 195.17 309.22 195.277 319.42C195.326 324.157 195.366 328.893 195.386 333.63C195.408 339.082 195.47 344.533 195.534 349.985C195.536 351.677 195.538 353.37 195.539 355.114C195.66 366.854 195.66 366.854 201.268 376.342C205.369 378.636 209.354 380.216 213.707 381.812C213.707 383.166 213.707 384.52 213.707 385.914C192.772 385.914 171.837 385.914 150.268 385.914C150.884 383.207 150.884 383.207 151.512 380.444C154.223 379.205 154.223 379.205 157.576 378.393C162.437 377.215 162.437 377.215 166.138 373.735C168.535 369.292 169.084 365.732 169.101 360.672C169.108 359.424 169.116 358.176 169.123 356.89C169.124 355.524 169.126 354.158 169.127 352.75C169.133 351.309 169.139 349.868 169.146 348.383C169.164 343.605 169.172 338.828 169.179 334.05C169.186 330.734 169.194 327.417 169.201 324.101C169.214 317.142 169.221 310.184 169.225 303.225C169.232 294.308 169.262 285.392 169.298 276.476C169.321 269.623 169.327 262.771 169.329 255.918C169.333 252.631 169.343 249.344 169.359 246.057C169.38 241.457 169.378 236.858 169.37 232.259C169.381 230.901 169.393 229.543 169.405 228.144C169.365 220.927 168.991 215.683 165.195 209.504C160.36 206.079 155.948 204.777 150.268 204.034C150.268 202.229 150.268 200.424 150.268 198.564Z" fill="#FDF5F0"/>
<path d="M161.463 150.701C182.398 150.701 203.333 150.701 224.902 150.701C224.902 151.603 224.902 152.506 224.902 153.436C224.019 153.898 223.135 154.359 222.225 154.835C221.082 155.445 219.939 156.055 218.761 156.684C217.621 157.286 216.481 157.889 215.306 158.511C212.303 159.989 212.303 159.989 211.219 163.008C210.213 171.454 213.487 178.45 216.351 186.085C217.393 188.936 218.435 191.786 219.475 194.638C219.984 196.022 220.493 197.406 221.017 198.832C222.771 203.645 224.43 208.487 226.069 213.35C229.453 223.348 232.924 233.308 236.409 243.265C236.952 244.818 237.495 246.372 238.055 247.973C240.808 255.896 240.808 255.896 243.73 263.745C244.805 266.94 244.805 266.94 244.805 271.043C236.185 271.043 227.564 271.043 218.683 271.043C212.419 256.656 207.165 242.023 202.046 227.111C197.303 213.317 192.51 199.552 187.381 185.925C186.803 184.361 186.803 184.361 186.212 182.766C182.247 172.367 178.296 163.003 168.927 157.538C164.915 155.838 164.915 155.838 161.463 154.803C161.463 153.449 161.463 152.096 161.463 150.701Z" fill="#FDF5F0"/>
<path d="M293.317 150.701C312.61 150.701 331.903 150.701 351.78 150.701C351.78 152.055 351.78 153.408 351.78 154.803C351.044 155.036 350.308 155.269 349.55 155.508C348.567 155.84 347.584 156.171 346.571 156.513C345.605 156.83 344.638 157.147 343.641 157.474C335.617 161.233 332.606 167.117 329.079 175.402C328.425 176.878 328.425 176.878 327.757 178.385C326.014 182.355 324.441 186.169 323.171 190.359C317.834 190.359 312.498 190.359 307 190.359C308.244 182.154 308.593 177.194 308.593 174.806C308.593 172.418 307 159.419 307 159.419C307 159.419 298.227 155.901 293.317 154.803C293.317 153.449 293.317 152.096 293.317 150.701Z" fill="#FDF5F0"/>
<path d="M150.268 198.564C162.583 198.564 174.897 198.564 187.585 198.564C187.175 199.467 186.764 200.369 186.341 201.299C170.332 200.622 170.332 200.622 154 199.931C154 200.834 154 201.737 154 202.667C154.821 203.118 155.642 203.569 156.488 204.034C154.435 204.034 152.383 204.034 150.268 204.034C150.268 202.229 150.268 200.424 150.268 198.564Z" fill="#FDF5F0"/>
<path d="M293.317 150.701C295.78 150.701 298.243 150.701 300.78 150.701C301.191 152.506 301.601 154.311 302.024 156.171C299.151 155.719 296.277 155.268 293.317 154.803C293.317 153.449 293.317 152.096 293.317 150.701Z" fill="#FDF5F0"/>
<path d="M150.268 198.564C153.141 198.564 156.015 198.564 158.975 198.564C157.333 199.015 155.691 199.467 154 199.931C154 200.834 154 201.737 154 202.667C154.821 203.118 155.642 203.569 156.488 204.034C154.435 204.034 152.383 204.034 150.268 204.034C150.268 202.229 150.268 200.424 150.268 198.564Z" fill="#FDF5F0"/>
</g>
<circle cx="256" cy="256" r="230" stroke="#FDF5F0" stroke-width="4"/>
<defs>
<clipPath id="clip0_101_36">
<rect width="306" height="320" fill="white" transform="translate(103 96)"/>
</clipPath>
</defs>
</svg>
