<svg width="420" height="280" viewBox="0 0 420 280" fill="none" xmlns="http://www.w3.org/2000/svg">
<g clip-path="url(#clip0_101_15)">
<path d="M154.37 77.1665C160.849 77.1665 167.329 77.1665 174.004 77.1665C177.882 86.6903 178.427 94.2587 178.177 104.611C178.096 109.378 178.015 114.144 177.931 119.055C191.106 119.055 204.28 119.055 217.854 119.055C217.638 120.962 217.422 122.869 217.199 124.833C214.176 124.833 211.152 124.833 208.037 124.833C208.894 127.347 209.753 129.859 210.614 132.371C210.858 133.089 211.102 133.806 211.354 134.545C211.588 135.227 211.822 135.909 212.063 136.612C212.279 137.243 212.495 137.875 212.718 138.526C213.161 139.969 213.161 139.969 213.927 140.722C214.18 139.928 214.433 139.134 214.694 138.316C216.384 133.019 218.076 127.723 219.826 122.45C220.43 120.626 221.032 118.801 221.632 116.976C223.157 112.348 224.686 107.721 226.219 103.096C226.533 102.149 226.846 101.202 227.159 100.254C232.488 84.1286 232.488 84.1286 233.561 82.9443C235.811 82.8089 235.811 82.8089 238.142 82.9443C238.79 83.6593 238.79 83.6593 239.451 84.3887C239.2 87.97 238.097 91.2382 236.997 94.5901C236.822 95.1317 236.646 95.6733 236.466 96.2313C235.215 100.053 233.854 103.809 232.406 107.545C230.959 111.345 229.653 115.204 228.325 119.055C234.157 119.055 239.988 119.055 245.996 119.055C245.963 114.608 245.921 110.163 245.86 105.716C245.842 104.205 245.828 102.693 245.819 101.181C245.805 99.0046 245.774 96.8287 245.74 94.6522C245.739 93.6431 245.739 93.6431 245.738 92.6136C245.656 88.5665 245.212 86.1287 242.724 82.9443C239.738 80.7727 237.045 80.3869 233.561 80.0554C233.237 78.6254 233.237 78.6254 232.907 77.1665C245.001 77.1665 257.096 77.1665 269.557 77.1665C269.557 77.8815 269.557 78.5965 269.557 79.3332C268.823 79.5706 268.823 79.5706 268.074 79.8128C267.43 80.0418 266.785 80.2708 266.121 80.5068C265.483 80.7246 264.846 80.9425 264.188 81.1669C261.902 82.4851 260.738 83.9755 259.74 86.5554C259.367 89.1078 259.389 91.6241 259.412 94.205C259.408 94.9665 259.405 95.728 259.401 96.5126C259.393 99.0242 259.404 101.535 259.415 104.047C259.415 105.795 259.414 107.544 259.412 109.292C259.412 112.954 259.42 116.616 259.435 120.278C259.453 124.97 259.451 129.662 259.443 134.354C259.439 137.964 259.444 141.573 259.452 145.183C259.455 146.913 259.455 148.643 259.452 150.373C259.451 152.791 259.461 155.209 259.476 157.628C259.473 158.342 259.47 159.055 259.467 159.791C259.504 163.599 259.733 166.34 261.703 169.611C264.252 171.923 266.279 172.878 269.557 173.222C269.557 174.175 269.557 175.129 269.557 176.111C258.542 176.111 247.528 176.111 236.179 176.111C236.179 175.158 236.179 174.204 236.179 173.222C236.574 173.151 236.969 173.081 237.376 173.008C241.632 172.138 241.632 172.138 244.687 168.889C245.828 166.226 246.169 164.09 246.205 161.155C246.218 160.346 246.231 159.536 246.244 158.702C246.252 157.836 246.259 156.97 246.267 156.078C246.28 155.185 246.292 154.293 246.306 153.373C246.338 151.009 246.365 148.645 246.389 146.281C246.416 143.865 246.449 141.449 246.482 139.034C246.546 134.3 246.598 129.567 246.651 124.833C236.608 125.191 236.608 125.191 226.362 125.555C224.126 131.574 222.022 137.596 220.104 143.746C218.63 148.468 217.069 153.105 215.279 157.694C214.314 160.192 213.463 162.727 212.618 165.278C210.89 165.278 209.162 165.278 207.382 165.278C204.112 157.013 201.082 148.651 198.15 140.234C197.76 139.115 197.369 137.996 196.977 136.877C196.419 135.287 195.867 133.694 195.315 132.101C195.146 131.618 194.976 131.136 194.802 130.639C194.098 128.587 193.638 127.048 193.638 124.833C188.455 124.833 183.272 124.833 177.931 124.833C177.958 130.22 177.995 135.607 178.051 140.994C178.077 143.495 178.098 145.997 178.108 148.498C178.12 151.378 178.153 154.257 178.187 157.136C178.188 158.03 178.188 158.923 178.189 159.844C178.253 166.045 178.253 166.045 181.203 171.055C183.361 172.267 185.458 173.102 187.748 173.944C187.748 174.659 187.748 175.374 187.748 176.111C176.733 176.111 165.719 176.111 154.37 176.111C154.694 174.681 154.694 174.681 155.025 173.222C156.451 172.568 156.451 172.568 158.215 172.139C160.773 171.516 160.773 171.516 162.72 169.679C163.981 167.332 164.27 165.452 164.279 162.78C164.283 162.121 164.287 161.462 164.29 160.783C164.291 160.061 164.292 159.34 164.293 158.596C164.296 157.835 164.299 157.074 164.302 156.29C164.312 153.766 164.317 151.243 164.32 148.72C164.324 146.969 164.328 145.217 164.331 143.466C164.338 139.791 164.342 136.116 164.344 132.441C164.348 127.732 164.364 123.023 164.382 118.314C164.395 114.695 164.398 111.076 164.399 107.457C164.401 105.721 164.406 103.985 164.415 102.249C164.426 99.8195 164.425 97.3908 164.42 94.9616C164.427 94.2445 164.433 93.5274 164.439 92.7885C164.418 88.9772 164.221 86.2078 162.224 82.9443C159.68 81.1352 157.359 80.448 154.37 80.0554C154.37 79.1021 154.37 78.1487 154.37 77.1665Z" fill="#967EDF"/>
<path d="M160.26 51.8887C171.275 51.8887 182.29 51.8887 193.638 51.8887C193.638 52.3653 193.638 52.842 193.638 53.3331C193.173 53.577 192.709 53.821 192.23 54.0723C191.628 54.3944 191.027 54.7165 190.407 55.0484C189.807 55.3668 189.207 55.6852 188.589 56.0132C187.009 56.794 187.009 56.794 186.439 58.3887C185.91 62.8491 187.632 66.5435 189.139 70.5762C189.687 72.0815 190.235 73.5871 190.783 75.0929C191.05 75.8238 191.318 76.5548 191.594 77.3079C192.517 79.85 193.39 82.4073 194.252 84.9755C196.032 90.2557 197.859 95.5159 199.692 100.774C199.978 101.595 200.264 102.415 200.559 103.26C202.007 107.445 202.007 107.445 203.544 111.59C204.11 113.278 204.11 113.278 204.11 115.444C199.574 115.444 195.039 115.444 190.366 115.444C187.07 107.846 184.306 100.118 181.612 92.2428C179.117 84.9579 176.595 77.6883 173.897 70.4915C173.592 69.6657 173.592 69.6657 173.282 68.8231C171.196 63.3313 169.116 58.3861 164.187 55.4998C162.076 54.6019 162.076 54.6019 160.26 54.0553C160.26 53.3403 160.26 52.6253 160.26 51.8887Z" fill="#967EDF"/>
<path d="M229.634 51.8887C239.785 51.8887 249.936 51.8887 260.394 51.8887C260.394 52.6037 260.394 53.3187 260.394 54.0553C260.007 54.1782 259.62 54.3011 259.221 54.4277C258.704 54.6028 258.187 54.7778 257.654 54.9581C257.145 55.1257 256.636 55.2933 256.112 55.4659C251.89 57.451 250.306 60.5584 248.45 64.9338C248.106 65.7137 248.106 65.7137 247.755 66.5094C246.838 68.6062 246.01 70.6204 245.342 72.8331C242.534 72.8331 239.726 72.8331 236.833 72.8331C237.488 68.4998 237.672 65.8804 237.672 64.6192C237.672 63.358 236.833 56.4928 236.833 56.4928C236.833 56.4928 232.218 54.6351 229.634 54.0553C229.634 53.3403 229.634 52.6253 229.634 51.8887Z" fill="#967EDF"/>
<path d="M154.37 77.1665C160.849 77.1665 167.329 77.1665 174.004 77.1665C173.788 77.6432 173.572 78.1198 173.35 78.6109C164.927 78.2534 164.927 78.2534 156.334 77.8887C156.334 78.3654 156.334 78.8421 156.334 79.3332C156.765 79.5715 157.197 79.8098 157.642 80.0554C156.563 80.0554 155.483 80.0554 154.37 80.0554C154.37 79.1021 154.37 78.1487 154.37 77.1665Z" fill="#967EDF"/>
<path d="M229.634 51.8887C230.93 51.8887 232.226 51.8887 233.561 51.8887C233.777 52.842 233.993 53.7953 234.216 54.7776C232.704 54.5392 231.192 54.3009 229.634 54.0553C229.634 53.3403 229.634 52.6253 229.634 51.8887Z" fill="#967EDF"/>
<path d="M154.37 77.1665C155.882 77.1665 157.394 77.1665 158.951 77.1665C158.088 77.4048 157.224 77.6432 156.334 77.8887C156.334 78.3654 156.334 78.8421 156.334 79.3332C156.765 79.5715 157.197 79.8098 157.642 80.0554C156.563 80.0554 155.483 80.0554 154.37 80.0554C154.37 79.1021 154.37 78.1487 154.37 77.1665Z" fill="#967EDF"/>
</g>
<path d="M39.4 219.64C39.4 219.44 39.4733 219.287 39.62 219.18C39.7667 219.06 39.9867 219 40.28 219H46.66C46.9667 219 47.1867 219.053 47.32 219.16C47.4667 219.267 47.54 219.42 47.54 219.62C47.54 219.767 47.4867 219.893 47.38 220C47.2867 220.093 47.1067 220.187 46.84 220.28L46 220.54C45.6133 220.687 45.2867 220.927 45.02 221.26C44.7667 221.593 44.5267 222.12 44.3 222.84L37.14 243.76C37.0333 244.107 36.9467 244.4 36.88 244.64C36.8267 244.88 36.8 245.127 36.8 245.38V246.24C36.8 246.48 36.7333 246.667 36.6 246.8C36.48 246.933 36.3067 247 36.08 247H32.38C32.14 247 31.9533 246.933 31.82 246.8C31.6867 246.667 31.62 246.473 31.62 246.22V245.38C31.62 245.167 31.5933 244.953 31.54 244.74C31.4867 244.527 31.4067 244.267 31.3 243.96L23.52 221.68C23.4133 221.32 23.2867 221.067 23.14 220.92C22.9933 220.773 22.7933 220.653 22.54 220.56L21.64 220.3C21.2 220.153 20.98 219.933 20.98 219.64C20.98 219.44 21.0533 219.287 21.2 219.18C21.36 219.06 21.5867 219 21.88 219H30.5C30.8067 219 31.0267 219.06 31.16 219.18C31.3067 219.287 31.38 219.44 31.38 219.64C31.38 219.8 31.32 219.933 31.2 220.04C31.08 220.133 30.9067 220.213 30.68 220.28L28.98 220.54C28.6467 220.62 28.44 220.767 28.36 220.98C28.2933 221.18 28.3467 221.52 28.52 222L36.28 244.44L34.86 245.48L42.6 222.74C42.8133 222.127 42.8467 221.647 42.7 221.3C42.5667 220.953 42.18 220.693 41.54 220.52L40.1 220.28C39.8733 220.213 39.7 220.133 39.58 220.04C39.46 219.933 39.4 219.8 39.4 219.64ZM52.825 235.92H64.525L64.645 237.4H52.645L52.825 235.92ZM54.525 246.36C54.525 246.547 54.4517 246.7 54.305 246.82C54.1717 246.94 53.9517 247 53.645 247H47.525C47.2183 247 46.9917 246.947 46.845 246.84C46.7117 246.72 46.645 246.567 46.645 246.38C46.645 246.233 46.6917 246.113 46.785 246.02C46.8783 245.913 47.045 245.807 47.285 245.7L48.085 245.44C48.4583 245.293 48.7517 245.073 48.965 244.78C49.1917 244.473 49.425 243.947 49.665 243.2L56.665 221.88C56.825 221.413 56.8517 221.073 56.745 220.86C56.6517 220.647 56.3717 220.48 55.905 220.36C55.5717 220.267 55.3383 220.16 55.205 220.04C55.0717 219.92 55.005 219.78 55.005 219.62C55.005 219.42 55.0783 219.267 55.225 219.16C55.3717 219.053 55.5983 219 55.905 219H63.885C64.1917 219 64.4117 219.053 64.545 219.16C64.6917 219.267 64.765 219.413 64.765 219.6C64.765 219.787 64.6983 219.94 64.565 220.06C64.445 220.167 64.225 220.26 63.905 220.34C63.5317 220.42 63.305 220.54 63.225 220.7C63.1583 220.847 63.185 221.107 63.305 221.48L70.845 243.94C71.005 244.46 71.205 244.847 71.445 245.1C71.6983 245.353 72.0517 245.527 72.505 245.62C72.825 245.713 73.0383 245.82 73.145 245.94C73.265 246.047 73.325 246.187 73.325 246.36C73.325 246.547 73.2517 246.7 73.105 246.82C72.9583 246.94 72.7317 247 72.425 247H64.545C64.2517 247 64.0317 246.94 63.885 246.82C63.7383 246.7 63.665 246.547 63.665 246.36C63.665 246.2 63.7183 246.067 63.825 245.96C63.945 245.853 64.125 245.767 64.365 245.7L65.705 245.5C66.0517 245.433 66.2317 245.293 66.245 245.08C66.2717 244.853 66.205 244.513 66.045 244.06L58.345 220.8L58.905 220.46L51.525 243.02C51.365 243.5 51.2917 243.9 51.305 244.22C51.3317 244.54 51.4517 244.8 51.665 245C51.8783 245.187 52.1917 245.347 52.605 245.48L53.845 245.72C54.0717 245.787 54.2383 245.867 54.345 245.96C54.465 246.053 54.525 246.187 54.525 246.36ZM86.0366 220.34L84.6366 220.58C84.3432 220.66 84.1099 220.78 83.9366 220.94C83.7766 221.1 83.6966 221.313 83.6966 221.58V244.26C83.6966 244.727 83.8366 245.06 84.1166 245.26C84.4099 245.46 84.8566 245.56 85.4566 245.56H89.7966C90.5566 245.56 91.2032 245.46 91.7366 245.26C92.2699 245.06 92.7432 244.7 93.1566 244.18C93.5832 243.66 94.0032 242.927 94.4166 241.98L95.6366 239.14C95.7432 238.913 95.8766 238.753 96.0366 238.66C96.1966 238.567 96.3832 238.547 96.5966 238.6C96.8366 238.64 96.9966 238.74 97.0766 238.9C97.1699 239.06 97.1832 239.28 97.1166 239.56L95.3966 246.7C95.3032 247.06 95.1766 247.32 95.0166 247.48C94.8566 247.653 94.6366 247.74 94.3566 247.74C94.1166 247.74 93.8832 247.673 93.6566 247.54C93.4432 247.42 93.1899 247.3 92.8966 247.18C92.6166 247.06 92.2632 247 91.8366 247H76.9366C76.6566 247 76.4432 246.94 76.2966 246.82C76.1632 246.7 76.0966 246.547 76.0966 246.36C76.0966 246.013 76.3166 245.78 76.7566 245.66L78.1566 245.42C78.4766 245.34 78.7166 245.22 78.8766 245.06C79.0366 244.9 79.1166 244.687 79.1166 244.42V221.58C79.1166 221.313 79.0366 221.1 78.8766 220.94C78.7166 220.78 78.4766 220.66 78.1566 220.58L76.7566 220.34C76.3166 220.22 76.0966 219.987 76.0966 219.64C76.0966 219.44 76.1632 219.287 76.2966 219.18C76.4432 219.06 76.6566 219 76.9366 219H85.8566C86.1632 219 86.3832 219.06 86.5166 219.18C86.6499 219.287 86.7166 219.44 86.7166 219.64C86.7166 219.987 86.4899 220.22 86.0366 220.34ZM106.217 232.26H113.057C113.897 232.26 114.491 232.093 114.837 231.76C115.184 231.413 115.417 230.76 115.537 229.8C115.577 229.56 115.651 229.38 115.757 229.26C115.877 229.14 116.031 229.073 116.217 229.06C116.591 229.007 116.837 229.22 116.957 229.7L118.517 235.52C118.584 235.773 118.584 235.973 118.517 236.12C118.451 236.267 118.317 236.373 118.117 236.44C117.931 236.493 117.751 236.487 117.577 236.42C117.417 236.353 117.277 236.227 117.157 236.04C116.797 235.4 116.464 234.913 116.157 234.58C115.851 234.233 115.511 234 115.137 233.88C114.764 233.747 114.291 233.68 113.717 233.68H106.217V232.26ZM100.257 219.64C100.257 219.44 100.324 219.287 100.457 219.18C100.604 219.06 100.817 219 101.097 219H116.477C116.877 219 117.211 218.933 117.477 218.8C117.744 218.667 117.991 218.533 118.217 218.4C118.444 218.267 118.691 218.2 118.957 218.2C119.224 218.2 119.431 218.28 119.577 218.44C119.724 218.587 119.851 218.84 119.957 219.2L121.517 224.94C121.597 225.18 121.597 225.38 121.517 225.54C121.437 225.7 121.291 225.813 121.077 225.88C120.851 225.947 120.637 225.933 120.437 225.84C120.251 225.747 120.097 225.58 119.977 225.34C119.471 224.287 119.011 223.44 118.597 222.8C118.184 222.147 117.764 221.653 117.337 221.32C116.924 220.973 116.471 220.74 115.977 220.62C115.497 220.5 114.937 220.44 114.297 220.44H107.857V243.94C107.857 244.487 108.024 244.893 108.357 245.16C108.691 245.427 109.204 245.56 109.897 245.56H114.817C115.671 245.56 116.404 245.413 117.017 245.12C117.631 244.827 118.231 244.24 118.817 243.36C119.404 242.48 120.071 241.173 120.817 239.44C120.911 239.227 121.037 239.08 121.197 239C121.357 238.907 121.531 238.88 121.717 238.92C121.957 238.947 122.124 239.047 122.217 239.22C122.324 239.38 122.344 239.6 122.277 239.88L120.597 246.68C120.491 247.04 120.357 247.3 120.197 247.46C120.037 247.633 119.811 247.72 119.517 247.72C119.277 247.72 119.044 247.66 118.817 247.54C118.591 247.42 118.337 247.3 118.057 247.18C117.777 247.06 117.437 247 117.037 247H101.097C100.817 247 100.604 246.94 100.457 246.82C100.324 246.7 100.257 246.547 100.257 246.36C100.257 246.013 100.477 245.78 100.917 245.66L102.317 245.42C102.637 245.34 102.877 245.22 103.037 245.06C103.197 244.9 103.277 244.687 103.277 244.42V221.58C103.277 221.313 103.197 221.1 103.037 220.94C102.877 220.78 102.637 220.66 102.317 220.58L100.917 220.34C100.477 220.22 100.257 219.987 100.257 219.64ZM148.847 228.54C148.847 229.847 148.56 231.033 147.987 232.1C147.414 233.153 146.6 234.033 145.547 234.74C144.507 235.433 143.267 235.907 141.827 236.16C141.4 236.24 140.994 236.32 140.607 236.4C140.234 236.467 139.854 236.527 139.467 236.58C139.08 236.633 138.66 236.66 138.207 236.66C137.354 236.66 136.534 236.6 135.747 236.48C134.974 236.36 134.254 236.187 133.587 235.96C132.934 235.733 132.367 235.46 131.887 235.14L132.067 233.84C132.467 234.133 132.954 234.38 133.527 234.58C134.1 234.78 134.72 234.933 135.387 235.04C136.054 235.147 136.734 235.2 137.427 235.2C139.507 235.2 141.14 234.633 142.327 233.5C143.514 232.353 144.107 230.713 144.107 228.58C144.107 226.98 143.754 225.567 143.047 224.34C142.34 223.1 141.34 222.127 140.047 221.42C138.767 220.7 137.254 220.34 135.507 220.34H133.267V244.4C133.267 244.667 133.34 244.887 133.487 245.06C133.634 245.22 133.854 245.34 134.147 245.42L135.927 245.66C136.194 245.74 136.374 245.833 136.467 245.94C136.56 246.047 136.607 246.187 136.607 246.36C136.607 246.787 136.32 247 135.747 247H126.507C126.227 247 126.014 246.94 125.867 246.82C125.734 246.7 125.667 246.547 125.667 246.36C125.667 246.013 125.887 245.78 126.327 245.66L127.727 245.42C128.047 245.34 128.287 245.22 128.447 245.06C128.607 244.887 128.687 244.667 128.687 244.4V221.58C128.687 221.313 128.607 221.1 128.447 220.94C128.287 220.78 128.047 220.66 127.727 220.58L126.327 220.34C125.887 220.22 125.667 219.987 125.667 219.64C125.667 219.44 125.734 219.287 125.867 219.18C126.014 219.06 126.227 219 126.507 219H135.627C138.454 219 140.847 219.407 142.807 220.22C144.78 221.033 146.28 222.16 147.307 223.6C148.334 225.04 148.847 226.687 148.847 228.54ZM138.507 236.04L143.007 235.5L148.607 244.24C148.86 244.64 149.14 244.947 149.447 245.16C149.754 245.36 150.154 245.52 150.647 245.64C151.047 245.733 151.314 245.833 151.447 245.94C151.58 246.047 151.647 246.187 151.647 246.36C151.647 246.547 151.574 246.7 151.427 246.82C151.28 246.94 151.054 247 150.747 247H142.907C142.334 247 142.047 246.787 142.047 246.36C142.047 246.227 142.094 246.12 142.187 246.04C142.28 245.947 142.414 245.873 142.587 245.82L143.387 245.68C143.694 245.573 143.867 245.427 143.907 245.24C143.96 245.053 143.88 244.787 143.667 244.44L138.507 236.04ZM161.353 244.42C161.353 244.687 161.433 244.9 161.593 245.06C161.766 245.22 161.999 245.34 162.293 245.42L163.693 245.66C164.146 245.78 164.373 246.013 164.373 246.36C164.373 246.56 164.306 246.72 164.173 246.84C164.039 246.947 163.819 247 163.513 247H154.593C154.299 247 154.086 246.947 153.953 246.84C153.819 246.72 153.753 246.56 153.753 246.36C153.753 246.013 153.973 245.78 154.413 245.66L155.813 245.42C156.133 245.34 156.373 245.22 156.533 245.06C156.693 244.9 156.773 244.687 156.773 244.42V221.58C156.773 221.313 156.693 221.1 156.533 220.94C156.373 220.78 156.133 220.66 155.813 220.58L154.413 220.34C153.973 220.22 153.753 219.987 153.753 219.64C153.753 219.44 153.819 219.287 153.953 219.18C154.086 219.06 154.299 219 154.593 219H163.513C163.819 219 164.039 219.06 164.173 219.18C164.306 219.287 164.373 219.44 164.373 219.64C164.373 219.987 164.146 220.22 163.693 220.34L162.293 220.58C161.999 220.66 161.766 220.78 161.593 220.94C161.433 221.1 161.353 221.313 161.353 221.58V244.42ZM173.177 235.92H184.877L184.997 237.4H172.997L173.177 235.92ZM174.877 246.36C174.877 246.547 174.803 246.7 174.657 246.82C174.523 246.94 174.303 247 173.997 247H167.877C167.57 247 167.343 246.947 167.197 246.84C167.063 246.72 166.997 246.567 166.997 246.38C166.997 246.233 167.043 246.113 167.137 246.02C167.23 245.913 167.397 245.807 167.637 245.7L168.437 245.44C168.81 245.293 169.103 245.073 169.317 244.78C169.543 244.473 169.777 243.947 170.017 243.2L177.017 221.88C177.177 221.413 177.203 221.073 177.097 220.86C177.003 220.647 176.723 220.48 176.257 220.36C175.923 220.267 175.69 220.16 175.557 220.04C175.423 219.92 175.357 219.78 175.357 219.62C175.357 219.42 175.43 219.267 175.577 219.16C175.723 219.053 175.95 219 176.257 219H184.237C184.543 219 184.763 219.053 184.897 219.16C185.043 219.267 185.117 219.413 185.117 219.6C185.117 219.787 185.05 219.94 184.917 220.06C184.797 220.167 184.577 220.26 184.257 220.34C183.883 220.42 183.657 220.54 183.577 220.7C183.51 220.847 183.537 221.107 183.657 221.48L191.197 243.94C191.357 244.46 191.557 244.847 191.797 245.1C192.05 245.353 192.403 245.527 192.857 245.62C193.177 245.713 193.39 245.82 193.497 245.94C193.617 246.047 193.677 246.187 193.677 246.36C193.677 246.547 193.603 246.7 193.457 246.82C193.31 246.94 193.083 247 192.777 247H184.897C184.603 247 184.383 246.94 184.237 246.82C184.09 246.7 184.017 246.547 184.017 246.36C184.017 246.2 184.07 246.067 184.177 245.96C184.297 245.853 184.477 245.767 184.717 245.7L186.057 245.5C186.403 245.433 186.583 245.293 186.597 245.08C186.623 244.853 186.557 244.513 186.397 244.06L178.697 220.8L179.257 220.46L171.877 243.02C171.717 243.5 171.643 243.9 171.657 244.22C171.683 244.54 171.803 244.8 172.017 245C172.23 245.187 172.543 245.347 172.957 245.48L174.197 245.72C174.423 245.787 174.59 245.867 174.697 245.96C174.817 246.053 174.877 246.187 174.877 246.36ZM210.101 233H227.401V234.48H210.101V233ZM212.701 244.42C212.701 244.687 212.781 244.9 212.941 245.06C213.101 245.22 213.334 245.34 213.641 245.42L215.041 245.66C215.494 245.78 215.721 246.013 215.721 246.36C215.721 246.56 215.648 246.72 215.501 246.84C215.368 246.947 215.154 247 214.861 247H205.941C205.648 247 205.428 246.947 205.281 246.84C205.148 246.72 205.081 246.56 205.081 246.36C205.081 246.013 205.308 245.78 205.761 245.66L207.161 245.42C207.468 245.34 207.701 245.22 207.861 245.06C208.034 244.9 208.121 244.687 208.121 244.42V221.58C208.121 221.313 208.034 221.1 207.861 220.94C207.701 220.78 207.468 220.66 207.161 220.58L205.761 220.34C205.308 220.22 205.081 219.987 205.081 219.64C205.081 219.44 205.148 219.287 205.281 219.18C205.428 219.06 205.648 219 205.941 219H214.861C215.154 219 215.368 219.06 215.501 219.18C215.648 219.287 215.721 219.44 215.721 219.64C215.721 219.987 215.494 220.22 215.041 220.34L213.641 220.58C213.334 220.66 213.101 220.78 212.941 220.94C212.781 221.1 212.701 221.313 212.701 221.58V244.42ZM230.361 244.42C230.361 244.687 230.441 244.9 230.601 245.06C230.774 245.22 231.014 245.34 231.321 245.42L232.721 245.66C233.174 245.78 233.401 246.013 233.401 246.36C233.401 246.56 233.328 246.72 233.181 246.84C233.048 246.947 232.834 247 232.541 247H223.621C223.328 247 223.108 246.947 222.961 246.84C222.828 246.72 222.761 246.56 222.761 246.36C222.761 246.013 222.988 245.78 223.441 245.66L224.841 245.42C225.148 245.34 225.381 245.22 225.541 245.06C225.701 244.9 225.781 244.687 225.781 244.42V221.58C225.781 221.313 225.701 221.1 225.541 220.94C225.381 220.78 225.148 220.66 224.841 220.58L223.441 220.34C222.988 220.22 222.761 219.987 222.761 219.64C222.761 219.44 222.828 219.287 222.961 219.18C223.108 219.06 223.328 219 223.621 219H232.541C232.834 219 233.048 219.06 233.181 219.18C233.328 219.287 233.401 219.44 233.401 219.64C233.401 219.987 233.174 220.22 232.721 220.34L231.321 220.58C231.014 220.66 230.774 220.78 230.601 220.94C230.441 221.1 230.361 221.313 230.361 221.58V244.42ZM243.639 232.26H250.479C251.319 232.26 251.912 232.093 252.259 231.76C252.606 231.413 252.839 230.76 252.959 229.8C252.999 229.56 253.072 229.38 253.179 229.26C253.299 229.14 253.452 229.073 253.639 229.06C254.012 229.007 254.259 229.22 254.379 229.7L255.939 235.52C256.006 235.773 256.006 235.973 255.939 236.12C255.872 236.267 255.739 236.373 255.539 236.44C255.352 236.493 255.172 236.487 254.999 236.42C254.839 236.353 254.699 236.227 254.579 236.04C254.219 235.4 253.886 234.913 253.579 234.58C253.272 234.233 252.932 234 252.559 233.88C252.186 233.747 251.712 233.68 251.139 233.68H243.639V232.26ZM237.679 219.64C237.679 219.44 237.746 219.287 237.879 219.18C238.026 219.06 238.239 219 238.519 219H253.899C254.299 219 254.632 218.933 254.899 218.8C255.166 218.667 255.412 218.533 255.639 218.4C255.866 218.267 256.112 218.2 256.379 218.2C256.646 218.2 256.852 218.28 256.999 218.44C257.146 218.587 257.272 218.84 257.379 219.2L258.939 224.94C259.019 225.18 259.019 225.38 258.939 225.54C258.859 225.7 258.712 225.813 258.499 225.88C258.272 225.947 258.059 225.933 257.859 225.84C257.672 225.747 257.519 225.58 257.399 225.34C256.892 224.287 256.432 223.44 256.019 222.8C255.606 222.147 255.186 221.653 254.759 221.32C254.346 220.973 253.892 220.74 253.399 220.62C252.919 220.5 252.359 220.44 251.719 220.44H245.279V243.94C245.279 244.487 245.446 244.893 245.779 245.16C246.112 245.427 246.626 245.56 247.319 245.56H252.239C253.092 245.56 253.826 245.413 254.439 245.12C255.052 244.827 255.652 244.24 256.239 243.36C256.826 242.48 257.492 241.173 258.239 239.44C258.332 239.227 258.459 239.08 258.619 239C258.779 238.907 258.952 238.88 259.139 238.92C259.379 238.947 259.546 239.047 259.639 239.22C259.746 239.38 259.766 239.6 259.699 239.88L258.019 246.68C257.912 247.04 257.779 247.3 257.619 247.46C257.459 247.633 257.232 247.72 256.939 247.72C256.699 247.72 256.466 247.66 256.239 247.54C256.012 247.42 255.759 247.3 255.479 247.18C255.199 247.06 254.859 247 254.459 247H238.519C238.239 247 238.026 246.94 237.879 246.82C237.746 246.7 237.679 246.547 237.679 246.36C237.679 246.013 237.899 245.78 238.339 245.66L239.739 245.42C240.059 245.34 240.299 245.22 240.459 245.06C240.619 244.9 240.699 244.687 240.699 244.42V221.58C240.699 221.313 240.619 221.1 240.459 220.94C240.299 220.78 240.059 220.66 239.739 220.58L238.339 220.34C237.899 220.22 237.679 219.987 237.679 219.64ZM286.269 228.54C286.269 229.847 285.982 231.033 285.409 232.1C284.835 233.153 284.022 234.033 282.969 234.74C281.929 235.433 280.689 235.907 279.249 236.16C278.822 236.24 278.415 236.32 278.029 236.4C277.655 236.467 277.275 236.527 276.889 236.58C276.502 236.633 276.082 236.66 275.629 236.66C274.775 236.66 273.955 236.6 273.169 236.48C272.395 236.36 271.675 236.187 271.009 235.96C270.355 235.733 269.789 235.46 269.309 235.14L269.489 233.84C269.889 234.133 270.375 234.38 270.949 234.58C271.522 234.78 272.142 234.933 272.809 235.04C273.475 235.147 274.155 235.2 274.849 235.2C276.929 235.2 278.562 234.633 279.749 233.5C280.935 232.353 281.529 230.713 281.529 228.58C281.529 226.98 281.175 225.567 280.469 224.34C279.762 223.1 278.762 222.127 277.469 221.42C276.189 220.7 274.675 220.34 272.929 220.34H270.689V244.4C270.689 244.667 270.762 244.887 270.909 245.06C271.055 245.22 271.275 245.34 271.569 245.42L273.349 245.66C273.615 245.74 273.795 245.833 273.889 245.94C273.982 246.047 274.029 246.187 274.029 246.36C274.029 246.787 273.742 247 273.169 247H263.929C263.649 247 263.435 246.94 263.289 246.82C263.155 246.7 263.089 246.547 263.089 246.36C263.089 246.013 263.309 245.78 263.749 245.66L265.149 245.42C265.469 245.34 265.709 245.22 265.869 245.06C266.029 244.887 266.109 244.667 266.109 244.4V221.58C266.109 221.313 266.029 221.1 265.869 220.94C265.709 220.78 265.469 220.66 265.149 220.58L263.749 220.34C263.309 220.22 263.089 219.987 263.089 219.64C263.089 219.44 263.155 219.287 263.289 219.18C263.435 219.06 263.649 219 263.929 219H273.049C275.875 219 278.269 219.407 280.229 220.22C282.202 221.033 283.702 222.16 284.729 223.6C285.755 225.04 286.269 226.687 286.269 228.54ZM275.929 236.04L280.429 235.5L286.029 244.24C286.282 244.64 286.562 244.947 286.869 245.16C287.175 245.36 287.575 245.52 288.069 245.64C288.469 245.733 288.735 245.833 288.869 245.94C289.002 246.047 289.069 246.187 289.069 246.36C289.069 246.547 288.995 246.7 288.849 246.82C288.702 246.94 288.475 247 288.169 247H280.329C279.755 247 279.469 246.787 279.469 246.36C279.469 246.227 279.515 246.12 279.609 246.04C279.702 245.947 279.835 245.873 280.009 245.82L280.809 245.68C281.115 245.573 281.289 245.427 281.329 245.24C281.382 245.053 281.302 244.787 281.089 244.44L275.929 236.04ZM314.355 228.54C314.355 229.847 314.068 231.033 313.495 232.1C312.921 233.153 312.108 234.033 311.055 234.74C310.015 235.433 308.775 235.907 307.335 236.16C306.908 236.24 306.501 236.32 306.115 236.4C305.741 236.467 305.361 236.527 304.975 236.58C304.588 236.633 304.168 236.66 303.715 236.66C302.861 236.66 302.041 236.6 301.255 236.48C300.481 236.36 299.761 236.187 299.095 235.96C298.441 235.733 297.875 235.46 297.395 235.14L297.575 233.84C297.975 234.133 298.461 234.38 299.035 234.58C299.608 234.78 300.228 234.933 300.895 235.04C301.561 235.147 302.241 235.2 302.935 235.2C305.015 235.2 306.648 234.633 307.835 233.5C309.021 232.353 309.615 230.713 309.615 228.58C309.615 226.98 309.261 225.567 308.555 224.34C307.848 223.1 306.848 222.127 305.555 221.42C304.275 220.7 302.761 220.34 301.015 220.34H298.775V244.4C298.775 244.667 298.848 244.887 298.995 245.06C299.141 245.22 299.361 245.34 299.655 245.42L301.435 245.66C301.701 245.74 301.881 245.833 301.975 245.94C302.068 246.047 302.115 246.187 302.115 246.36C302.115 246.787 301.828 247 301.255 247H292.015C291.735 247 291.521 246.94 291.375 246.82C291.241 246.7 291.175 246.547 291.175 246.36C291.175 246.013 291.395 245.78 291.835 245.66L293.235 245.42C293.555 245.34 293.795 245.22 293.955 245.06C294.115 244.887 294.195 244.667 294.195 244.4V221.58C294.195 221.313 294.115 221.1 293.955 220.94C293.795 220.78 293.555 220.66 293.235 220.58L291.835 220.34C291.395 220.22 291.175 219.987 291.175 219.64C291.175 219.44 291.241 219.287 291.375 219.18C291.521 219.06 291.735 219 292.015 219H301.135C303.961 219 306.355 219.407 308.315 220.22C310.288 221.033 311.788 222.16 312.815 223.6C313.841 225.04 314.355 226.687 314.355 228.54ZM304.015 236.04L308.515 235.5L314.115 244.24C314.368 244.64 314.648 244.947 314.955 245.16C315.261 245.36 315.661 245.52 316.155 245.64C316.555 245.733 316.821 245.833 316.955 245.94C317.088 246.047 317.155 246.187 317.155 246.36C317.155 246.547 317.081 246.7 316.935 246.82C316.788 246.94 316.561 247 316.255 247H308.415C307.841 247 307.555 246.787 307.555 246.36C307.555 246.227 307.601 246.12 307.695 246.04C307.788 245.947 307.921 245.873 308.095 245.82L308.895 245.68C309.201 245.573 309.375 245.427 309.415 245.24C309.468 245.053 309.388 244.787 309.175 244.44L304.015 236.04ZM325.241 232.26H332.081C332.921 232.26 333.514 232.093 333.861 231.76C334.207 231.413 334.441 230.76 334.561 229.8C334.601 229.56 334.674 229.38 334.781 229.26C334.901 229.14 335.054 229.073 335.241 229.06C335.614 229.007 335.861 229.22 335.981 229.7L337.541 235.52C337.607 235.773 337.607 235.973 337.541 236.12C337.474 236.267 337.341 236.373 337.141 236.44C336.954 236.493 336.774 236.487 336.601 236.42C336.441 236.353 336.301 236.227 336.181 236.04C335.821 235.4 335.487 234.913 335.181 234.58C334.874 234.233 334.534 234 334.161 233.88C333.787 233.747 333.314 233.68 332.741 233.68H325.241V232.26ZM319.281 219.64C319.281 219.44 319.347 219.287 319.481 219.18C319.627 219.06 319.841 219 320.121 219H335.501C335.901 219 336.234 218.933 336.501 218.8C336.767 218.667 337.014 218.533 337.241 218.4C337.467 218.267 337.714 218.2 337.981 218.2C338.247 218.2 338.454 218.28 338.601 218.44C338.747 218.587 338.874 218.84 338.981 219.2L340.541 224.94C340.621 225.18 340.621 225.38 340.541 225.54C340.461 225.7 340.314 225.813 340.101 225.88C339.874 225.947 339.661 225.933 339.461 225.84C339.274 225.747 339.121 225.58 339.001 225.34C338.494 224.287 338.034 223.44 337.621 222.8C337.207 222.147 336.787 221.653 336.361 221.32C335.947 220.973 335.494 220.74 335.001 220.62C334.521 220.5 333.961 220.44 333.321 220.44H326.881V243.94C326.881 244.487 327.047 244.893 327.381 245.16C327.714 245.427 328.227 245.56 328.921 245.56H333.841C334.694 245.56 335.427 245.413 336.041 245.12C336.654 244.827 337.254 244.24 337.841 243.36C338.427 242.48 339.094 241.173 339.841 239.44C339.934 239.227 340.061 239.08 340.221 239C340.381 238.907 340.554 238.88 340.741 238.92C340.981 238.947 341.147 239.047 341.241 239.22C341.347 239.38 341.367 239.6 341.301 239.88L339.621 246.68C339.514 247.04 339.381 247.3 339.221 247.46C339.061 247.633 338.834 247.72 338.541 247.72C338.301 247.72 338.067 247.66 337.841 247.54C337.614 247.42 337.361 247.3 337.081 247.18C336.801 247.06 336.461 247 336.061 247H320.121C319.841 247 319.627 246.94 319.481 246.82C319.347 246.7 319.281 246.547 319.281 246.36C319.281 246.013 319.501 245.78 319.941 245.66L321.341 245.42C321.661 245.34 321.901 245.22 322.061 245.06C322.221 244.9 322.301 244.687 322.301 244.42V221.58C322.301 221.313 322.221 221.1 322.061 220.94C321.901 220.78 321.661 220.66 321.341 220.58L319.941 220.34C319.501 220.22 319.281 219.987 319.281 219.64ZM367.87 228.54C367.87 229.847 367.584 231.033 367.01 232.1C366.437 233.153 365.624 234.033 364.57 234.74C363.53 235.433 362.29 235.907 360.85 236.16C360.424 236.24 360.017 236.32 359.63 236.4C359.257 236.467 358.877 236.527 358.49 236.58C358.104 236.633 357.684 236.66 357.23 236.66C356.377 236.66 355.557 236.6 354.77 236.48C353.997 236.36 353.277 236.187 352.61 235.96C351.957 235.733 351.39 235.46 350.91 235.14L351.09 233.84C351.49 234.133 351.977 234.38 352.55 234.58C353.124 234.78 353.744 234.933 354.41 235.04C355.077 235.147 355.757 235.2 356.45 235.2C358.53 235.2 360.164 234.633 361.35 233.5C362.537 232.353 363.13 230.713 363.13 228.58C363.13 226.98 362.777 225.567 362.07 224.34C361.364 223.1 360.364 222.127 359.07 221.42C357.79 220.7 356.277 220.34 354.53 220.34H352.29V244.4C352.29 244.667 352.364 244.887 352.51 245.06C352.657 245.22 352.877 245.34 353.17 245.42L354.95 245.66C355.217 245.74 355.397 245.833 355.49 245.94C355.584 246.047 355.63 246.187 355.63 246.36C355.63 246.787 355.344 247 354.77 247H345.53C345.25 247 345.037 246.94 344.89 246.82C344.757 246.7 344.69 246.547 344.69 246.36C344.69 246.013 344.91 245.78 345.35 245.66L346.75 245.42C347.07 245.34 347.31 245.22 347.47 245.06C347.63 244.887 347.71 244.667 347.71 244.4V221.58C347.71 221.313 347.63 221.1 347.47 220.94C347.31 220.78 347.07 220.66 346.75 220.58L345.35 220.34C344.91 220.22 344.69 219.987 344.69 219.64C344.69 219.44 344.757 219.287 344.89 219.18C345.037 219.06 345.25 219 345.53 219H354.65C357.477 219 359.87 219.407 361.83 220.22C363.804 221.033 365.304 222.16 366.33 223.6C367.357 225.04 367.87 226.687 367.87 228.54ZM357.53 236.04L362.03 235.5L367.63 244.24C367.884 244.64 368.164 244.947 368.47 245.16C368.777 245.36 369.177 245.52 369.67 245.64C370.07 245.733 370.337 245.833 370.47 245.94C370.604 246.047 370.67 246.187 370.67 246.36C370.67 246.547 370.597 246.7 370.45 246.82C370.304 246.94 370.077 247 369.77 247H361.93C361.357 247 361.07 246.787 361.07 246.36C361.07 246.227 361.117 246.12 361.21 246.04C361.304 245.947 361.437 245.873 361.61 245.82L362.41 245.68C362.717 245.573 362.89 245.427 362.93 245.24C362.984 245.053 362.904 244.787 362.69 244.44L357.53 236.04ZM377.473 235.92H389.173L389.293 237.4H377.293L377.473 235.92ZM379.173 246.36C379.173 246.547 379.1 246.7 378.953 246.82C378.82 246.94 378.6 247 378.293 247H372.173C371.867 247 371.64 246.947 371.493 246.84C371.36 246.72 371.293 246.567 371.293 246.38C371.293 246.233 371.34 246.113 371.433 246.02C371.527 245.913 371.693 245.807 371.933 245.7L372.733 245.44C373.107 245.293 373.4 245.073 373.613 244.78C373.84 244.473 374.073 243.947 374.313 243.2L381.313 221.88C381.473 221.413 381.5 221.073 381.393 220.86C381.3 220.647 381.02 220.48 380.553 220.36C380.22 220.267 379.987 220.16 379.853 220.04C379.72 219.92 379.653 219.78 379.653 219.62C379.653 219.42 379.727 219.267 379.873 219.16C380.02 219.053 380.247 219 380.553 219H388.533C388.84 219 389.06 219.053 389.193 219.16C389.34 219.267 389.413 219.413 389.413 219.6C389.413 219.787 389.347 219.94 389.213 220.06C389.093 220.167 388.873 220.26 388.553 220.34C388.18 220.42 387.953 220.54 387.873 220.7C387.807 220.847 387.833 221.107 387.953 221.48L395.493 243.94C395.653 244.46 395.853 244.847 396.093 245.1C396.347 245.353 396.7 245.527 397.153 245.62C397.473 245.713 397.687 245.82 397.793 245.94C397.913 246.047 397.973 246.187 397.973 246.36C397.973 246.547 397.9 246.7 397.753 246.82C397.607 246.94 397.38 247 397.073 247H389.193C388.9 247 388.68 246.94 388.533 246.82C388.387 246.7 388.313 246.547 388.313 246.36C388.313 246.2 388.367 246.067 388.473 245.96C388.593 245.853 388.773 245.767 389.013 245.7L390.353 245.5C390.7 245.433 390.88 245.293 390.893 245.08C390.92 244.853 390.853 244.513 390.693 244.06L382.993 220.8L383.553 220.46L376.173 243.02C376.013 243.5 375.94 243.9 375.953 244.22C375.98 244.54 376.1 244.8 376.313 245C376.527 245.187 376.84 245.347 377.253 245.48L378.493 245.72C378.72 245.787 378.887 245.867 378.993 245.96C379.113 246.053 379.173 246.187 379.173 246.36Z" fill="#967EDF"/>
<defs>
<clipPath id="clip0_101_15">
<rect width="161" height="169" fill="white" transform="translate(129.5 23)"/>
</clipPath>
</defs>
</svg>
