<svg width="720" height="160" viewBox="0 0 720 160" fill="none" xmlns="http://www.w3.org/2000/svg">
<g clip-path="url(#clip0_101_14)">
<path d="M21.9351 53.436C27.6497 53.436 33.3643 53.436 39.2521 53.436C42.6721 61.7764 43.1528 68.4044 42.932 77.4702C42.8606 81.6446 42.7891 85.8189 42.7155 90.1198C54.3353 90.1198 65.9551 90.1198 77.9269 90.1198C77.7364 91.7895 77.546 93.4593 77.3497 95.1796C74.6829 95.1796 72.016 95.1796 69.2684 95.1796C70.0241 97.3809 70.782 99.5813 71.5413 101.781C71.7567 102.409 71.9721 103.038 72.194 103.685C72.4005 104.282 72.607 104.879 72.8197 105.494C73.0102 106.048 73.2006 106.601 73.3968 107.171C73.7881 108.435 73.7881 108.435 74.4635 109.094C74.6867 108.399 74.91 107.703 75.14 106.987C76.6305 102.348 78.1232 97.7106 79.666 93.0923C80.199 91.4952 80.7297 89.8973 81.2596 88.299C82.6046 84.2457 83.9527 80.1937 85.305 76.1433C85.5817 75.314 85.8581 74.4845 86.1342 73.6548C90.834 59.533 90.834 59.533 91.7806 58.4959C93.7648 58.3773 93.7648 58.3773 95.8212 58.4959C96.3927 59.122 96.3927 59.122 96.9757 59.7608C96.7536 62.8971 95.7808 65.7592 94.8111 68.6946C94.6563 69.1689 94.5016 69.6432 94.3422 70.1319C93.2389 73.4784 92.0387 76.768 90.7614 80.0397C89.4853 83.3671 88.3339 86.7466 87.1627 90.1198C92.3059 90.1198 97.449 90.1198 102.748 90.1198C102.719 86.2253 102.682 82.3324 102.628 78.4384C102.612 77.1146 102.6 75.7908 102.592 74.4669C102.579 72.5605 102.552 70.655 102.523 68.7489C102.522 67.8652 102.522 67.8652 102.52 66.9637C102.448 63.4194 102.056 61.2846 99.8619 58.4959C97.2286 56.5942 94.8537 56.2562 91.7806 55.9659C91.4949 54.7136 91.4949 54.7136 91.2033 53.436C101.871 53.436 112.538 53.436 123.529 53.436C123.529 54.0622 123.529 54.6883 123.529 55.3335C122.881 55.5414 122.881 55.5414 122.221 55.7535C121.652 55.954 121.084 56.1546 120.498 56.3612C119.936 56.552 119.373 56.7428 118.793 56.9394C116.777 58.0937 115.75 59.3989 114.87 61.6583C114.541 63.8935 114.56 66.0971 114.58 68.3573C114.577 69.0242 114.574 69.6911 114.571 70.3782C114.564 72.5777 114.573 74.7766 114.584 76.9761C114.584 78.5072 114.583 80.0384 114.581 81.5695C114.58 84.7766 114.588 87.9835 114.601 91.1905C114.617 95.2995 114.616 99.4083 114.608 103.517C114.604 106.678 114.609 109.84 114.616 113.001C114.618 114.516 114.619 116.031 114.616 117.546C114.615 119.664 114.624 121.781 114.637 123.899C114.634 124.524 114.632 125.149 114.629 125.793C114.662 129.128 114.864 131.529 116.602 134.393C118.849 136.418 120.638 137.254 123.529 137.556C123.529 138.391 123.529 139.225 123.529 140.086C113.814 140.086 104.099 140.086 94.0895 140.086C94.0895 139.251 94.0895 138.416 94.0895 137.556C94.4378 137.494 94.786 137.432 95.1448 137.368C98.8992 136.606 98.8992 136.606 101.594 133.761C102.6 131.429 102.9 129.559 102.932 126.988C102.944 126.279 102.955 125.57 102.967 124.84C102.974 124.082 102.98 123.323 102.987 122.542C102.998 121.76 103.009 120.978 103.021 120.173C103.05 118.103 103.073 116.033 103.095 113.962C103.118 111.847 103.148 109.731 103.176 107.615C103.233 103.47 103.279 99.3251 103.325 95.1796C94.4676 95.4927 94.4676 95.4927 85.431 95.8121C83.4587 101.083 81.6029 106.356 79.9112 111.743C78.6117 115.877 77.235 119.938 75.6563 123.957C74.8046 126.145 74.0539 128.365 73.309 130.598C71.7851 130.598 70.2612 130.598 68.6912 130.598C65.8066 123.36 63.1347 116.038 60.5485 108.667C60.2045 107.686 59.8595 106.707 59.5135 105.727C59.022 104.334 58.5346 102.939 58.0484 101.544C57.8989 101.121 57.7494 100.699 57.5953 100.264C56.9744 98.4673 56.5692 97.1192 56.5692 95.1796C51.9975 95.1796 47.4258 95.1796 42.7155 95.1796C42.7389 99.8973 42.7719 104.615 42.8217 109.332C42.8445 111.523 42.8631 113.713 42.872 115.904C42.8824 118.426 42.9113 120.947 42.941 123.468C42.9417 124.251 42.9424 125.034 42.9432 125.84C42.9993 131.27 42.9993 131.27 45.6017 135.658C47.505 136.719 49.3539 137.45 51.3741 138.188C51.3741 138.814 51.3741 139.44 51.3741 140.086C41.6592 140.086 31.9443 140.086 21.9351 140.086C22.2208 138.833 22.2208 138.833 22.5123 137.556C23.7705 136.983 23.7705 136.983 25.3263 136.607C27.5823 136.062 27.5823 136.062 29.2993 134.453C30.412 132.398 30.6667 130.751 30.6747 128.411C30.678 127.834 30.6813 127.257 30.6847 126.662C30.6853 126.03 30.6859 125.398 30.6866 124.747C30.6895 124.081 30.6923 123.414 30.6953 122.727C30.7037 120.518 30.7077 118.308 30.7108 116.098C30.7142 114.565 30.7175 113.031 30.7208 111.497C30.7269 108.278 30.7303 105.06 30.7323 101.842C30.7354 97.7179 30.7493 93.5941 30.7657 89.4702C30.7765 86.3009 30.7795 83.1317 30.7804 79.9624C30.7821 78.442 30.7868 76.9217 30.7943 75.4014C30.8042 73.2742 30.8031 71.1472 30.7993 69.0199C30.8047 68.3919 30.81 67.7639 30.8155 67.1169C30.797 63.7791 30.6235 61.3538 28.8619 58.4959C26.6182 56.9115 24.5711 56.3098 21.9351 55.9659C21.9351 55.1311 21.9351 54.2962 21.9351 53.436Z" fill="#967EDF"/>
<path d="M27.1299 31.2993C36.8448 31.2993 46.5596 31.2993 56.5689 31.2993C56.5689 31.7168 56.5689 32.1342 56.5689 32.5643C56.1589 32.7779 55.7489 32.9915 55.3265 33.2116C54.796 33.4937 54.2654 33.7758 53.7188 34.0664C53.1898 34.3452 52.6607 34.6241 52.1156 34.9114C50.7221 35.5951 50.7221 35.5951 50.2193 36.9916C49.7523 40.8978 51.2716 44.1331 52.6004 47.6647C53.0842 48.983 53.5675 50.3015 54.0503 51.6202C54.2864 52.2603 54.5226 52.9004 54.7659 53.5599C55.58 55.7862 56.3499 58.0257 57.1101 60.2747C58.6805 64.8989 60.2914 69.5054 61.9083 74.1102C62.1605 74.8288 62.4127 75.5473 62.6726 76.2876C63.9499 79.9522 63.9499 79.9522 65.3058 83.5821C65.8047 85.06 65.8047 85.06 65.8047 86.9574C61.8044 86.9574 57.8042 86.9574 53.6827 86.9574C50.7761 80.3036 48.3378 73.5358 45.9622 66.6391C43.7614 60.2593 41.5373 53.8931 39.1571 47.5906C38.8886 46.8673 38.8886 46.8673 38.6147 46.1295C36.7748 41.3201 34.9409 36.9894 30.5933 34.4617C28.7318 33.6754 28.7318 33.6754 27.1299 33.1968C27.1299 32.5706 27.1299 31.9444 27.1299 31.2993Z" fill="#967EDF"/>
<path d="M88.3169 31.2993C97.2698 31.2993 106.223 31.2993 115.447 31.2993C115.447 31.9255 115.447 32.5516 115.447 33.1968C115.105 33.3044 114.764 33.412 114.412 33.5229C113.956 33.6762 113.5 33.8294 113.03 33.9874C112.581 34.1341 112.132 34.2809 111.67 34.4321C107.946 36.1705 106.549 38.8918 104.912 42.7235C104.609 43.4065 104.609 43.4065 104.299 44.1033C103.49 45.9395 102.76 47.7035 102.171 49.6412C99.6942 49.6412 97.2179 49.6412 94.6665 49.6412C95.2437 45.8463 95.406 43.5524 95.406 42.4479C95.406 41.3434 94.6665 35.3314 94.6665 35.3314C94.6665 35.3314 90.5953 33.7045 88.3169 33.1968C88.3169 32.5706 88.3169 31.9444 88.3169 31.2993Z" fill="#967EDF"/>
<path d="M21.9351 53.436C27.6497 53.436 33.3643 53.436 39.2521 53.436C39.0616 53.8535 38.8712 54.2709 38.6749 54.701C31.2459 54.3879 31.2459 54.3879 23.6668 54.0685C23.6668 54.4859 23.6668 54.9034 23.6668 55.3335C24.0477 55.5422 24.4287 55.7509 24.8212 55.9659C23.8688 55.9659 22.9164 55.9659 21.9351 55.9659C21.9351 55.1311 21.9351 54.2962 21.9351 53.436Z" fill="#967EDF"/>
<path d="M88.3169 31.2993C89.4598 31.2993 90.6027 31.2993 91.7803 31.2993C91.9708 32.1342 92.1613 32.9691 92.3575 33.8292C91.0241 33.6205 89.6907 33.4118 88.3169 33.1968C88.3169 32.5706 88.3169 31.9444 88.3169 31.2993Z" fill="#967EDF"/>
<path d="M21.9351 53.436C23.2685 53.436 24.6019 53.436 25.9757 53.436C25.2138 53.6448 24.4518 53.8535 23.6668 54.0685C23.6668 54.4859 23.6668 54.9034 23.6668 55.3335C24.0477 55.5422 24.4287 55.7509 24.8212 55.9659C23.8688 55.9659 22.9164 55.9659 21.9351 55.9659C21.9351 55.1311 21.9351 54.2962 21.9351 53.436Z" fill="#967EDF"/>
</g>
<path d="M184.124 62.084C184.124 61.8227 184.208 61.6267 184.376 61.496C184.563 61.3653 184.824 61.3 185.16 61.3H194.092C194.465 61.3 194.736 61.3653 194.904 61.496C195.072 61.6267 195.156 61.8133 195.156 62.056C195.156 62.224 195.091 62.3733 194.96 62.504C194.848 62.616 194.633 62.7373 194.316 62.868L193.112 63.232C192.571 63.4373 192.104 63.7827 191.712 64.268C191.339 64.7347 190.993 65.4813 190.676 66.508L180.68 96.16C180.549 96.608 180.447 97 180.372 97.336C180.297 97.6533 180.26 97.9893 180.26 98.344V99.548C180.26 99.8467 180.176 100.08 180.008 100.248C179.859 100.416 179.644 100.5 179.364 100.5H174.212C173.913 100.5 173.68 100.416 173.512 100.248C173.363 100.08 173.288 99.8467 173.288 99.548V98.316C173.288 98.036 173.251 97.756 173.176 97.476C173.101 97.1773 172.989 96.8227 172.84 96.412L161.948 64.716C161.799 64.268 161.631 63.9413 161.444 63.736C161.257 63.5307 160.996 63.372 160.66 63.26L159.344 62.896C158.803 62.7093 158.532 62.4387 158.532 62.084C158.532 61.8227 158.625 61.6267 158.812 61.496C158.999 61.3653 159.269 61.3 159.624 61.3H171.72C172.093 61.3 172.364 61.3653 172.532 61.496C172.719 61.6267 172.812 61.8227 172.812 62.084C172.812 62.2707 172.737 62.4293 172.588 62.56C172.439 62.672 172.224 62.7747 171.944 62.868L169.452 63.232C169.004 63.344 168.733 63.54 168.64 63.82C168.547 64.0813 168.603 64.5293 168.808 65.164L179.644 96.916L177.852 98.428L188.604 66.396C188.884 65.5187 188.921 64.828 188.716 64.324C188.511 63.82 187.932 63.4467 186.98 63.204L184.964 62.868C184.684 62.7747 184.469 62.672 184.32 62.56C184.189 62.4293 184.124 62.2707 184.124 62.084ZM202.155 85.044H218.255L218.395 86.864H201.903L202.155 85.044ZM204.255 99.716C204.255 99.9587 204.171 100.155 204.003 100.304C203.835 100.435 203.564 100.5 203.191 100.5H194.707C194.352 100.5 194.081 100.435 193.895 100.304C193.727 100.155 193.643 99.968 193.643 99.744C193.643 99.5573 193.699 99.408 193.811 99.296C193.923 99.1653 194.128 99.044 194.427 98.932L195.575 98.568C196.097 98.344 196.527 98.0173 196.863 97.588C197.199 97.1587 197.535 96.4027 197.871 95.32L207.643 65.108C207.867 64.4733 207.904 64.0067 207.755 63.708C207.605 63.3907 207.213 63.148 206.579 62.98C206.149 62.8493 205.851 62.7187 205.683 62.588C205.515 62.4387 205.431 62.2613 205.431 62.056C205.431 61.8133 205.515 61.6267 205.683 61.496C205.869 61.3653 206.149 61.3 206.523 61.3H217.331C217.704 61.3 217.975 61.3653 218.143 61.496C218.311 61.6267 218.395 61.804 218.395 62.028C218.395 62.252 218.311 62.4387 218.143 62.588C217.993 62.7187 217.713 62.84 217.303 62.952C216.78 63.0453 216.463 63.204 216.351 63.428C216.257 63.6333 216.285 63.9787 216.435 64.464L227.159 96.608C227.383 97.2987 227.663 97.812 227.999 98.148C228.335 98.4653 228.811 98.6893 229.427 98.82C229.819 98.932 230.08 99.0627 230.211 99.212C230.341 99.3427 230.407 99.5107 230.407 99.716C230.407 99.9587 230.313 100.155 230.127 100.304C229.959 100.435 229.697 100.5 229.343 100.5H218.395C218.04 100.5 217.769 100.435 217.583 100.304C217.415 100.155 217.331 99.9587 217.331 99.716C217.331 99.5107 217.396 99.352 217.527 99.24C217.676 99.1093 217.891 99.0067 218.171 98.932L220.019 98.652C220.485 98.5587 220.737 98.3627 220.775 98.064C220.812 97.7653 220.737 97.3173 220.551 96.72L209.687 63.764L210.443 63.204L200.139 95.124C199.933 95.8147 199.849 96.384 199.887 96.832C199.924 97.28 200.101 97.644 200.419 97.924C200.736 98.204 201.193 98.4373 201.791 98.624L203.415 98.932C203.713 99.0253 203.928 99.128 204.059 99.24C204.189 99.352 204.255 99.5107 204.255 99.716ZM247.804 62.924L245.732 63.288C245.321 63.3813 245.004 63.5307 244.78 63.736C244.575 63.9413 244.472 64.2213 244.472 64.576V97.028C244.472 97.6253 244.659 98.064 245.032 98.344C245.405 98.6053 245.984 98.736 246.768 98.736H252.984C254.029 98.736 254.925 98.596 255.672 98.316C256.419 98.0173 257.091 97.4947 257.688 96.748C258.304 96.0013 258.911 94.9467 259.508 93.584L261.3 89.468C261.449 89.1693 261.617 88.964 261.804 88.852C261.991 88.74 262.215 88.712 262.476 88.768C262.775 88.824 262.98 88.9547 263.092 89.16C263.204 89.3653 263.213 89.636 263.12 89.972L260.684 100.192C260.553 100.659 260.395 100.995 260.208 101.2C260.021 101.405 259.76 101.508 259.424 101.508C259.125 101.508 258.817 101.424 258.5 101.256C258.201 101.088 257.856 100.92 257.464 100.752C257.072 100.584 256.577 100.5 255.98 100.5H235.036C234.663 100.5 234.392 100.435 234.224 100.304C234.056 100.155 233.972 99.9587 233.972 99.716C233.972 99.2867 234.252 99.0067 234.812 98.876L236.884 98.512C237.295 98.4187 237.603 98.2693 237.808 98.064C238.032 97.8587 238.144 97.5787 238.144 97.224V64.576C238.144 64.2213 238.032 63.9413 237.808 63.736C237.603 63.5307 237.295 63.3813 236.884 63.288L234.812 62.924C234.252 62.7933 233.972 62.5133 233.972 62.084C233.972 61.8227 234.056 61.6267 234.224 61.496C234.392 61.3653 234.663 61.3 235.036 61.3H247.608C247.963 61.3 248.224 61.3653 248.392 61.496C248.56 61.6267 248.644 61.8227 248.644 62.084C248.644 62.5133 248.364 62.7933 247.804 62.924ZM275.567 79.92H285.003C286.217 79.92 287.075 79.668 287.579 79.164C288.102 78.66 288.438 77.708 288.587 76.308C288.643 76.0093 288.737 75.7853 288.867 75.636C289.017 75.4867 289.194 75.4027 289.399 75.384C289.866 75.328 290.174 75.5987 290.323 76.196L292.591 84.484C292.685 84.7827 292.685 85.0253 292.591 85.212C292.517 85.3987 292.358 85.5293 292.115 85.604C291.891 85.66 291.677 85.6507 291.471 85.576C291.266 85.5013 291.089 85.352 290.939 85.128C290.398 84.176 289.894 83.4573 289.427 82.972C288.979 82.468 288.485 82.1227 287.943 81.936C287.402 81.7493 286.721 81.656 285.899 81.656H275.567V79.92ZM267.195 62.084C267.195 61.8227 267.279 61.6267 267.447 61.496C267.615 61.3653 267.877 61.3 268.231 61.3H289.987C290.51 61.3 290.949 61.2067 291.303 61.02C291.677 60.8333 292.013 60.656 292.311 60.488C292.61 60.3013 292.927 60.208 293.263 60.208C293.581 60.208 293.823 60.3107 293.991 60.516C294.178 60.7027 294.337 61.0293 294.467 61.496L296.679 69.7C296.773 69.9987 296.773 70.2507 296.679 70.456C296.586 70.6427 296.409 70.7733 296.147 70.848C295.867 70.9227 295.615 70.9133 295.391 70.82C295.167 70.708 294.971 70.4933 294.803 70.176C294.057 68.664 293.375 67.4413 292.759 66.508C292.143 65.5747 291.537 64.856 290.939 64.352C290.342 63.848 289.698 63.512 289.007 63.344C288.335 63.1573 287.561 63.064 286.683 63.064H277.695V96.636C277.695 97.3453 277.91 97.8773 278.339 98.232C278.769 98.568 279.422 98.736 280.299 98.736H287.327C288.503 98.736 289.521 98.5213 290.379 98.092C291.257 97.6627 292.125 96.8133 292.983 95.544C293.842 94.256 294.822 92.352 295.923 89.832C296.054 89.552 296.213 89.3653 296.399 89.272C296.586 89.16 296.801 89.1227 297.043 89.16C297.323 89.1973 297.519 89.328 297.631 89.552C297.762 89.7573 297.781 90.028 297.687 90.364L295.279 100.164C295.149 100.631 294.99 100.967 294.803 101.172C294.617 101.377 294.346 101.48 293.991 101.48C293.674 101.48 293.366 101.396 293.067 101.228C292.769 101.06 292.423 100.892 292.031 100.724C291.639 100.575 291.154 100.5 290.575 100.5H268.231C267.877 100.5 267.615 100.435 267.447 100.304C267.279 100.155 267.195 99.9587 267.195 99.716C267.195 99.2867 267.475 99.0067 268.035 98.876L270.107 98.512C270.518 98.4187 270.826 98.2693 271.031 98.064C271.255 97.8587 271.367 97.5787 271.367 97.224V64.576C271.367 64.2213 271.255 63.9413 271.031 63.736C270.826 63.5307 270.518 63.3813 270.107 63.288L268.035 62.924C267.475 62.7933 267.195 62.5133 267.195 62.084ZM334.394 74.684C334.394 76.532 333.993 78.2027 333.19 79.696C332.387 81.1707 331.249 82.4027 329.774 83.392C328.299 84.3627 326.554 85.0253 324.538 85.38C323.997 85.4733 323.474 85.5667 322.97 85.66C322.466 85.7533 321.953 85.8373 321.43 85.912C320.926 85.968 320.375 85.996 319.778 85.996C318.546 85.996 317.379 85.912 316.278 85.744C315.195 85.576 314.197 85.3333 313.282 85.016C312.367 84.6987 311.574 84.3067 310.902 83.84L311.126 82.244C311.705 82.6733 312.395 83.0373 313.198 83.336C314.001 83.616 314.869 83.8307 315.802 83.98C316.735 84.1107 317.678 84.176 318.63 84.176C321.486 84.176 323.735 83.3733 325.378 81.768C327.039 80.144 327.87 77.8013 327.87 74.74C327.87 72.4627 327.375 70.4373 326.386 68.664C325.397 66.8907 323.997 65.5 322.186 64.492C320.394 63.4653 318.285 62.952 315.858 62.952H312.722V97.168C312.722 97.5413 312.815 97.84 313.002 98.064C313.207 98.2693 313.515 98.4187 313.926 98.512L316.418 98.876C316.754 98.9507 316.978 99.0627 317.09 99.212C317.202 99.3427 317.258 99.5107 317.258 99.716C317.258 100.239 316.913 100.5 316.222 100.5H303.286C302.913 100.5 302.642 100.435 302.474 100.304C302.306 100.155 302.222 99.9587 302.222 99.716C302.222 99.2867 302.502 99.0067 303.062 98.876L305.134 98.512C305.545 98.4187 305.853 98.2693 306.058 98.064C306.282 97.84 306.394 97.5413 306.394 97.168V64.576C306.394 64.2213 306.282 63.9413 306.058 63.736C305.853 63.5307 305.545 63.3813 305.134 63.288L303.062 62.924C302.502 62.7933 302.222 62.5133 302.222 62.084C302.222 61.8227 302.306 61.6267 302.474 61.496C302.642 61.3653 302.913 61.3 303.286 61.3H315.998C319.918 61.3 323.25 61.8693 325.994 63.008C328.738 64.1467 330.819 65.724 332.238 67.74C333.675 69.756 334.394 72.0707 334.394 74.684ZM320.002 85.212L326.162 84.456L334.058 96.888C334.45 97.4667 334.861 97.9053 335.29 98.204C335.738 98.484 336.307 98.6987 336.998 98.848C337.483 98.96 337.801 99.0813 337.95 99.212C338.118 99.3427 338.202 99.5107 338.202 99.716C338.202 99.9587 338.109 100.155 337.922 100.304C337.754 100.435 337.483 100.5 337.11 100.5H326.106C325.397 100.5 325.042 100.239 325.042 99.716C325.042 99.5667 325.098 99.436 325.21 99.324C325.322 99.212 325.499 99.1187 325.742 99.044L326.918 98.848C327.347 98.7173 327.59 98.5213 327.646 98.26C327.702 97.98 327.581 97.5973 327.282 97.112L320.002 85.212ZM351.441 97.224C351.441 97.5787 351.543 97.8587 351.749 98.064C351.973 98.2693 352.29 98.4187 352.701 98.512L354.773 98.876C355.333 99.0067 355.613 99.2867 355.613 99.716C355.613 99.9587 355.529 100.155 355.361 100.304C355.193 100.435 354.931 100.5 354.577 100.5H342.005C341.631 100.5 341.361 100.435 341.193 100.304C341.025 100.155 340.941 99.9587 340.941 99.716C340.941 99.2867 341.221 99.0067 341.781 98.876L343.853 98.512C344.263 98.4187 344.571 98.2693 344.777 98.064C345.001 97.8587 345.113 97.5787 345.113 97.224V64.576C345.113 64.2213 345.001 63.9413 344.777 63.736C344.571 63.5307 344.263 63.3813 343.853 63.288L341.781 62.924C341.221 62.7933 340.941 62.5133 340.941 62.084C340.941 61.8227 341.025 61.6267 341.193 61.496C341.361 61.3653 341.631 61.3 342.005 61.3H354.577C354.931 61.3 355.193 61.3653 355.361 61.496C355.529 61.6267 355.613 61.8227 355.613 62.084C355.613 62.5133 355.333 62.7933 354.773 62.924L352.701 63.288C352.29 63.3813 351.973 63.5307 351.749 63.736C351.543 63.9413 351.441 64.2213 351.441 64.576V97.224ZM367.53 85.044H383.63L383.77 86.864H367.278L367.53 85.044ZM369.63 99.716C369.63 99.9587 369.546 100.155 369.378 100.304C369.21 100.435 368.939 100.5 368.566 100.5H360.082C359.727 100.5 359.456 100.435 359.27 100.304C359.102 100.155 359.018 99.968 359.018 99.744C359.018 99.5573 359.074 99.408 359.186 99.296C359.298 99.1653 359.503 99.044 359.802 98.932L360.95 98.568C361.472 98.344 361.902 98.0173 362.238 97.588C362.574 97.1587 362.91 96.4027 363.246 95.32L373.018 65.108C373.242 64.4733 373.279 64.0067 373.13 63.708C372.98 63.3907 372.588 63.148 371.954 62.98C371.524 62.8493 371.226 62.7187 371.058 62.588C370.89 62.4387 370.806 62.2613 370.806 62.056C370.806 61.8133 370.89 61.6267 371.058 61.496C371.244 61.3653 371.524 61.3 371.898 61.3H382.706C383.079 61.3 383.35 61.3653 383.518 61.496C383.686 61.6267 383.77 61.804 383.77 62.028C383.77 62.252 383.686 62.4387 383.518 62.588C383.368 62.7187 383.088 62.84 382.678 62.952C382.155 63.0453 381.838 63.204 381.726 63.428C381.632 63.6333 381.66 63.9787 381.81 64.464L392.534 96.608C392.758 97.2987 393.038 97.812 393.374 98.148C393.71 98.4653 394.186 98.6893 394.802 98.82C395.194 98.932 395.455 99.0627 395.586 99.212C395.716 99.3427 395.782 99.5107 395.782 99.716C395.782 99.9587 395.688 100.155 395.502 100.304C395.334 100.435 395.072 100.5 394.718 100.5H383.77C383.415 100.5 383.144 100.435 382.958 100.304C382.79 100.155 382.706 99.9587 382.706 99.716C382.706 99.5107 382.771 99.352 382.902 99.24C383.051 99.1093 383.266 99.0067 383.546 98.932L385.394 98.652C385.86 98.5587 386.112 98.3627 386.15 98.064C386.187 97.7653 386.112 97.3173 385.926 96.72L375.062 63.764L375.818 63.204L365.514 95.124C365.308 95.8147 365.224 96.384 365.262 96.832C365.299 97.28 365.476 97.644 365.794 97.924C366.111 98.204 366.568 98.4373 367.166 98.624L368.79 98.932C369.088 99.0253 369.303 99.128 369.434 99.24C369.564 99.352 369.63 99.5107 369.63 99.716ZM418.051 81.04H441.963V82.86H418.051V81.04ZM421.523 97.224C421.523 97.5787 421.635 97.8587 421.859 98.064C422.083 98.2693 422.401 98.4187 422.811 98.512L424.855 98.876C425.415 99.0067 425.695 99.2867 425.695 99.716C425.695 99.9587 425.611 100.155 425.443 100.304C425.275 100.435 425.014 100.5 424.659 100.5H412.087C411.733 100.5 411.471 100.435 411.303 100.304C411.135 100.155 411.051 99.9587 411.051 99.716C411.051 99.2867 411.322 99.0067 411.863 98.876L413.935 98.512C414.365 98.4187 414.682 98.2693 414.887 98.064C415.111 97.8587 415.223 97.5787 415.223 97.224V64.576C415.223 64.2213 415.111 63.9413 414.887 63.736C414.682 63.5307 414.365 63.3813 413.935 63.288L411.863 62.924C411.322 62.7933 411.051 62.5133 411.051 62.084C411.051 61.8227 411.135 61.6267 411.303 61.496C411.471 61.3653 411.733 61.3 412.087 61.3H424.659C425.014 61.3 425.275 61.3653 425.443 61.496C425.611 61.6267 425.695 61.8227 425.695 62.084C425.695 62.5133 425.415 62.7933 424.855 62.924L422.811 63.288C422.401 63.3813 422.083 63.5307 421.859 63.736C421.635 63.9413 421.523 64.2213 421.523 64.576V97.224ZM445.995 97.224C445.995 97.5787 446.107 97.8587 446.331 98.064C446.555 98.2693 446.873 98.4187 447.283 98.512L449.355 98.876C449.915 99.0067 450.195 99.2867 450.195 99.716C450.195 99.9587 450.111 100.155 449.943 100.304C449.775 100.435 449.505 100.5 449.131 100.5H436.559C436.205 100.5 435.943 100.435 435.775 100.304C435.607 100.155 435.523 99.9587 435.523 99.716C435.523 99.2867 435.803 99.0067 436.363 98.876L438.435 98.512C438.846 98.4187 439.154 98.2693 439.359 98.064C439.583 97.8587 439.695 97.5787 439.695 97.224V64.576C439.695 64.2213 439.583 63.9413 439.359 63.736C439.154 63.5307 438.846 63.3813 438.435 63.288L436.363 62.924C435.803 62.7933 435.523 62.5133 435.523 62.084C435.523 61.8227 435.607 61.6267 435.775 61.496C435.943 61.3653 436.205 61.3 436.559 61.3H449.131C449.505 61.3 449.775 61.3653 449.943 61.496C450.111 61.6267 450.195 61.8227 450.195 62.084C450.195 62.5133 449.915 62.7933 449.355 62.924L447.283 63.288C446.873 63.3813 446.555 63.5307 446.331 63.736C446.107 63.9413 445.995 64.2213 445.995 64.576V97.224ZM464.239 79.92H473.675C474.888 79.92 475.747 79.668 476.251 79.164C476.774 78.66 477.11 77.708 477.259 76.308C477.315 76.0093 477.408 75.7853 477.539 75.636C477.688 75.4867 477.866 75.4027 478.071 75.384C478.538 75.328 478.846 75.5987 478.995 76.196L481.263 84.484C481.356 84.7827 481.356 85.0253 481.263 85.212C481.188 85.3987 481.03 85.5293 480.787 85.604C480.563 85.66 480.348 85.6507 480.143 85.576C479.938 85.5013 479.76 85.352 479.611 85.128C479.07 84.176 478.566 83.4573 478.099 82.972C477.651 82.468 477.156 82.1227 476.615 81.936C476.074 81.7493 475.392 81.656 474.571 81.656H464.239V79.92ZM455.867 62.084C455.867 61.8227 455.951 61.6267 456.119 61.496C456.287 61.3653 456.548 61.3 456.903 61.3H478.659C479.182 61.3 479.62 61.2067 479.975 61.02C480.348 60.8333 480.684 60.656 480.983 60.488C481.282 60.3013 481.599 60.208 481.935 60.208C482.252 60.208 482.495 60.3107 482.663 60.516C482.85 60.7027 483.008 61.0293 483.139 61.496L485.351 69.7C485.444 69.9987 485.444 70.2507 485.351 70.456C485.258 70.6427 485.08 70.7733 484.819 70.848C484.539 70.9227 484.287 70.9133 484.063 70.82C483.839 70.708 483.643 70.4933 483.475 70.176C482.728 68.664 482.047 67.4413 481.431 66.508C480.815 65.5747 480.208 64.856 479.611 64.352C479.014 63.848 478.37 63.512 477.679 63.344C477.007 63.1573 476.232 63.064 475.355 63.064H466.367V96.636C466.367 97.3453 466.582 97.8773 467.011 98.232C467.44 98.568 468.094 98.736 468.971 98.736H475.999C477.175 98.736 478.192 98.5213 479.051 98.092C479.928 97.6627 480.796 96.8133 481.655 95.544C482.514 94.256 483.494 92.352 484.595 89.832C484.726 89.552 484.884 89.3653 485.071 89.272C485.258 89.16 485.472 89.1227 485.715 89.16C485.995 89.1973 486.191 89.328 486.303 89.552C486.434 89.7573 486.452 90.028 486.359 90.364L483.951 100.164C483.82 100.631 483.662 100.967 483.475 101.172C483.288 101.377 483.018 101.48 482.663 101.48C482.346 101.48 482.038 101.396 481.739 101.228C481.44 101.06 481.095 100.892 480.703 100.724C480.311 100.575 479.826 100.5 479.247 100.5H456.903C456.548 100.5 456.287 100.435 456.119 100.304C455.951 100.155 455.867 99.9587 455.867 99.716C455.867 99.2867 456.147 99.0067 456.707 98.876L458.779 98.512C459.19 98.4187 459.498 98.2693 459.703 98.064C459.927 97.8587 460.039 97.5787 460.039 97.224V64.576C460.039 64.2213 459.927 63.9413 459.703 63.736C459.498 63.5307 459.19 63.3813 458.779 63.288L456.707 62.924C456.147 62.7933 455.867 62.5133 455.867 62.084ZM523.066 74.684C523.066 76.532 522.664 78.2027 521.862 79.696C521.059 81.1707 519.92 82.4027 518.446 83.392C516.971 84.3627 515.226 85.0253 513.21 85.38C512.668 85.4733 512.146 85.5667 511.642 85.66C511.138 85.7533 510.624 85.8373 510.102 85.912C509.598 85.968 509.047 85.996 508.45 85.996C507.218 85.996 506.051 85.912 504.95 85.744C503.867 85.576 502.868 85.3333 501.954 85.016C501.039 84.6987 500.246 84.3067 499.574 83.84L499.798 82.244C500.376 82.6733 501.067 83.0373 501.87 83.336C502.672 83.616 503.54 83.8307 504.474 83.98C505.407 84.1107 506.35 84.176 507.302 84.176C510.158 84.176 512.407 83.3733 514.05 81.768C515.711 80.144 516.542 77.8013 516.542 74.74C516.542 72.4627 516.047 70.4373 515.058 68.664C514.068 66.8907 512.668 65.5 510.858 64.492C509.066 63.4653 506.956 62.952 504.53 62.952H501.394V97.168C501.394 97.5413 501.487 97.84 501.674 98.064C501.879 98.2693 502.187 98.4187 502.598 98.512L505.09 98.876C505.426 98.9507 505.65 99.0627 505.762 99.212C505.874 99.3427 505.93 99.5107 505.93 99.716C505.93 100.239 505.584 100.5 504.894 100.5H491.958C491.584 100.5 491.314 100.435 491.146 100.304C490.978 100.155 490.894 99.9587 490.894 99.716C490.894 99.2867 491.174 99.0067 491.734 98.876L493.806 98.512C494.216 98.4187 494.524 98.2693 494.73 98.064C494.954 97.84 495.066 97.5413 495.066 97.168V64.576C495.066 64.2213 494.954 63.9413 494.73 63.736C494.524 63.5307 494.216 63.3813 493.806 63.288L491.734 62.924C491.174 62.7933 490.894 62.5133 490.894 62.084C490.894 61.8227 490.978 61.6267 491.146 61.496C491.314 61.3653 491.584 61.3 491.958 61.3H504.67C508.59 61.3 511.922 61.8693 514.666 63.008C517.41 64.1467 519.491 65.724 520.91 67.74C522.347 69.756 523.066 72.0707 523.066 74.684ZM508.674 85.212L514.834 84.456L522.73 96.888C523.122 97.4667 523.532 97.9053 523.962 98.204C524.41 98.484 524.979 98.6987 525.67 98.848C526.155 98.96 526.472 99.0813 526.622 99.212C526.79 99.3427 526.874 99.5107 526.874 99.716C526.874 99.9587 526.78 100.155 526.594 100.304C526.426 100.435 526.155 100.5 525.782 100.5H514.778C514.068 100.5 513.714 100.239 513.714 99.716C513.714 99.5667 513.77 99.436 513.882 99.324C513.994 99.212 514.171 99.1187 514.414 99.044L515.59 98.848C516.019 98.7173 516.262 98.5213 516.318 98.26C516.374 97.98 516.252 97.5973 515.954 97.112L508.674 85.212ZM561.785 74.684C561.785 76.532 561.383 78.2027 560.581 79.696C559.778 81.1707 558.639 82.4027 557.165 83.392C555.69 84.3627 553.945 85.0253 551.929 85.38C551.387 85.4733 550.865 85.5667 550.361 85.66C549.857 85.7533 549.343 85.8373 548.821 85.912C548.317 85.968 547.766 85.996 547.169 85.996C545.937 85.996 544.77 85.912 543.669 85.744C542.586 85.576 541.587 85.3333 540.673 85.016C539.758 84.6987 538.965 84.3067 538.293 83.84L538.517 82.244C539.095 82.6733 539.786 83.0373 540.589 83.336C541.391 83.616 542.259 83.8307 543.193 83.98C544.126 84.1107 545.069 84.176 546.021 84.176C548.877 84.176 551.126 83.3733 552.769 81.768C554.43 80.144 555.261 77.8013 555.261 74.74C555.261 72.4627 554.766 70.4373 553.777 68.664C552.787 66.8907 551.387 65.5 549.577 64.492C547.785 63.4653 545.675 62.952 543.249 62.952H540.113V97.168C540.113 97.5413 540.206 97.84 540.393 98.064C540.598 98.2693 540.906 98.4187 541.317 98.512L543.809 98.876C544.145 98.9507 544.369 99.0627 544.481 99.212C544.593 99.3427 544.649 99.5107 544.649 99.716C544.649 100.239 544.303 100.5 543.613 100.5H530.677C530.303 100.5 530.033 100.435 529.865 100.304C529.697 100.155 529.613 99.9587 529.613 99.716C529.613 99.2867 529.893 99.0067 530.453 98.876L532.525 98.512C532.935 98.4187 533.243 98.2693 533.449 98.064C533.673 97.84 533.785 97.5413 533.785 97.168V64.576C533.785 64.2213 533.673 63.9413 533.449 63.736C533.243 63.5307 532.935 63.3813 532.525 63.288L530.453 62.924C529.893 62.7933 529.613 62.5133 529.613 62.084C529.613 61.8227 529.697 61.6267 529.865 61.496C530.033 61.3653 530.303 61.3 530.677 61.3H543.389C547.309 61.3 550.641 61.8693 553.385 63.008C556.129 64.1467 558.21 65.724 559.629 67.74C561.066 69.756 561.785 72.0707 561.785 74.684ZM547.393 85.212L553.553 84.456L561.449 96.888C561.841 97.4667 562.251 97.9053 562.681 98.204C563.129 98.484 563.698 98.6987 564.389 98.848C564.874 98.96 565.191 99.0813 565.341 99.212C565.509 99.3427 565.593 99.5107 565.593 99.716C565.593 99.9587 565.499 100.155 565.313 100.304C565.145 100.435 564.874 100.5 564.501 100.5H553.497C552.787 100.5 552.433 100.239 552.433 99.716C552.433 99.5667 552.489 99.436 552.601 99.324C552.713 99.212 552.89 99.1187 553.133 99.044L554.309 98.848C554.738 98.7173 554.981 98.5213 555.037 98.26C555.093 97.98 554.971 97.5973 554.673 97.112L547.393 85.212ZM576.731 79.92H586.167C587.381 79.92 588.239 79.668 588.743 79.164C589.266 78.66 589.602 77.708 589.751 76.308C589.807 76.0093 589.901 75.7853 590.031 75.636C590.181 75.4867 590.358 75.4027 590.563 75.384C591.03 75.328 591.338 75.5987 591.487 76.196L593.755 84.484C593.849 84.7827 593.849 85.0253 593.755 85.212C593.681 85.3987 593.522 85.5293 593.279 85.604C593.055 85.66 592.841 85.6507 592.635 85.576C592.43 85.5013 592.253 85.352 592.103 85.128C591.562 84.176 591.058 83.4573 590.591 82.972C590.143 82.468 589.649 82.1227 589.107 81.936C588.566 81.7493 587.885 81.656 587.063 81.656H576.731V79.92ZM568.359 62.084C568.359 61.8227 568.443 61.6267 568.611 61.496C568.779 61.3653 569.041 61.3 569.395 61.3H591.151C591.674 61.3 592.113 61.2067 592.467 61.02C592.841 60.8333 593.177 60.656 593.475 60.488C593.774 60.3013 594.091 60.208 594.427 60.208C594.745 60.208 594.987 60.3107 595.155 60.516C595.342 60.7027 595.501 61.0293 595.631 61.496L597.843 69.7C597.937 69.9987 597.937 70.2507 597.843 70.456C597.75 70.6427 597.573 70.7733 597.311 70.848C597.031 70.9227 596.779 70.9133 596.555 70.82C596.331 70.708 596.135 70.4933 595.967 70.176C595.221 68.664 594.539 67.4413 593.923 66.508C593.307 65.5747 592.701 64.856 592.103 64.352C591.506 63.848 590.862 63.512 590.171 63.344C589.499 63.1573 588.725 63.064 587.847 63.064H578.859V96.636C578.859 97.3453 579.074 97.8773 579.503 98.232C579.933 98.568 580.586 98.736 581.463 98.736H588.491C589.667 98.736 590.685 98.5213 591.543 98.092C592.421 97.6627 593.289 96.8133 594.147 95.544C595.006 94.256 595.986 92.352 597.087 89.832C597.218 89.552 597.377 89.3653 597.563 89.272C597.75 89.16 597.965 89.1227 598.207 89.16C598.487 89.1973 598.683 89.328 598.795 89.552C598.926 89.7573 598.945 90.028 598.851 90.364L596.443 100.164C596.313 100.631 596.154 100.967 595.967 101.172C595.781 101.377 595.51 101.48 595.155 101.48C594.838 101.48 594.53 101.396 594.231 101.228C593.933 101.06 593.587 100.892 593.195 100.724C592.803 100.575 592.318 100.5 591.739 100.5H569.395C569.041 100.5 568.779 100.435 568.611 100.304C568.443 100.155 568.359 99.9587 568.359 99.716C568.359 99.2867 568.639 99.0067 569.199 98.876L571.271 98.512C571.682 98.4187 571.99 98.2693 572.195 98.064C572.419 97.8587 572.531 97.5787 572.531 97.224V64.576C572.531 64.2213 572.419 63.9413 572.195 63.736C571.99 63.5307 571.682 63.3813 571.271 63.288L569.199 62.924C568.639 62.7933 568.359 62.5133 568.359 62.084ZM635.558 74.684C635.558 76.532 635.157 78.2027 634.354 79.696C633.551 81.1707 632.413 82.4027 630.938 83.392C629.463 84.3627 627.718 85.0253 625.702 85.38C625.161 85.4733 624.638 85.5667 624.134 85.66C623.63 85.7533 623.117 85.8373 622.594 85.912C622.09 85.968 621.539 85.996 620.942 85.996C619.71 85.996 618.543 85.912 617.442 85.744C616.359 85.576 615.361 85.3333 614.446 85.016C613.531 84.6987 612.738 84.3067 612.066 83.84L612.29 82.244C612.869 82.6733 613.559 83.0373 614.362 83.336C615.165 83.616 616.033 83.8307 616.966 83.98C617.899 84.1107 618.842 84.176 619.794 84.176C622.65 84.176 624.899 83.3733 626.542 81.768C628.203 80.144 629.034 77.8013 629.034 74.74C629.034 72.4627 628.539 70.4373 627.55 68.664C626.561 66.8907 625.161 65.5 623.35 64.492C621.558 63.4653 619.449 62.952 617.022 62.952H613.886V97.168C613.886 97.5413 613.979 97.84 614.166 98.064C614.371 98.2693 614.679 98.4187 615.09 98.512L617.582 98.876C617.918 98.9507 618.142 99.0627 618.254 99.212C618.366 99.3427 618.422 99.5107 618.422 99.716C618.422 100.239 618.077 100.5 617.386 100.5H604.45C604.077 100.5 603.806 100.435 603.638 100.304C603.47 100.155 603.386 99.9587 603.386 99.716C603.386 99.2867 603.666 99.0067 604.226 98.876L606.298 98.512C606.709 98.4187 607.017 98.2693 607.222 98.064C607.446 97.84 607.558 97.5413 607.558 97.168V64.576C607.558 64.2213 607.446 63.9413 607.222 63.736C607.017 63.5307 606.709 63.3813 606.298 63.288L604.226 62.924C603.666 62.7933 603.386 62.5133 603.386 62.084C603.386 61.8227 603.47 61.6267 603.638 61.496C603.806 61.3653 604.077 61.3 604.45 61.3H617.162C621.082 61.3 624.414 61.8693 627.158 63.008C629.902 64.1467 631.983 65.724 633.402 67.74C634.839 69.756 635.558 72.0707 635.558 74.684ZM621.166 85.212L627.326 84.456L635.222 96.888C635.614 97.4667 636.025 97.9053 636.454 98.204C636.902 98.484 637.471 98.6987 638.162 98.848C638.647 98.96 638.965 99.0813 639.114 99.212C639.282 99.3427 639.366 99.5107 639.366 99.716C639.366 99.9587 639.273 100.155 639.086 100.304C638.918 100.435 638.647 100.5 638.274 100.5H627.27C626.561 100.5 626.206 100.239 626.206 99.716C626.206 99.5667 626.262 99.436 626.374 99.324C626.486 99.212 626.663 99.1187 626.906 99.044L628.082 98.848C628.511 98.7173 628.754 98.5213 628.81 98.26C628.866 97.98 628.745 97.5973 628.446 97.112L621.166 85.212ZM648.514 85.044H664.614L664.754 86.864H648.262L648.514 85.044ZM650.614 99.716C650.614 99.9587 650.53 100.155 650.362 100.304C650.194 100.435 649.923 100.5 649.55 100.5H641.066C640.711 100.5 640.441 100.435 640.254 100.304C640.086 100.155 640.002 99.968 640.002 99.744C640.002 99.5573 640.058 99.408 640.17 99.296C640.282 99.1653 640.487 99.044 640.786 98.932L641.934 98.568C642.457 98.344 642.886 98.0173 643.222 97.588C643.558 97.1587 643.894 96.4027 644.23 95.32L654.002 65.108C654.226 64.4733 654.263 64.0067 654.114 63.708C653.965 63.3907 653.573 63.148 652.938 62.98C652.509 62.8493 652.21 62.7187 652.042 62.588C651.874 62.4387 651.79 62.2613 651.79 62.056C651.79 61.8133 651.874 61.6267 652.042 61.496C652.229 61.3653 652.509 61.3 652.882 61.3H663.69C664.063 61.3 664.334 61.3653 664.502 61.496C664.67 61.6267 664.754 61.804 664.754 62.028C664.754 62.252 664.67 62.4387 664.502 62.588C664.353 62.7187 664.073 62.84 663.662 62.952C663.139 63.0453 662.822 63.204 662.71 63.428C662.617 63.6333 662.645 63.9787 662.794 64.464L673.518 96.608C673.742 97.2987 674.022 97.812 674.358 98.148C674.694 98.4653 675.17 98.6893 675.786 98.82C676.178 98.932 676.439 99.0627 676.57 99.212C676.701 99.3427 676.766 99.5107 676.766 99.716C676.766 99.9587 676.673 100.155 676.486 100.304C676.318 100.435 676.057 100.5 675.702 100.5H664.754C664.399 100.5 664.129 100.435 663.942 100.304C663.774 100.155 663.69 99.9587 663.69 99.716C663.69 99.5107 663.755 99.352 663.886 99.24C664.035 99.1093 664.25 99.0067 664.53 98.932L666.378 98.652C666.845 98.5587 667.097 98.3627 667.134 98.064C667.171 97.7653 667.097 97.3173 666.91 96.72L656.046 63.764L656.802 63.204L646.498 95.124C646.293 95.8147 646.209 96.384 646.246 96.832C646.283 97.28 646.461 97.644 646.778 97.924C647.095 98.204 647.553 98.4373 648.15 98.624L649.774 98.932C650.073 99.0253 650.287 99.128 650.418 99.24C650.549 99.352 650.614 99.5107 650.614 99.716Z" fill="#967EDF"/>
<defs>
<clipPath id="clip0_101_14">
<rect width="142" height="148" fill="white" transform="translate(0 6)"/>
</clipPath>
</defs>
</svg>
